<svg width="151" height="41" viewBox="0 0 151 41" fill="none" xmlns="http://www.w3.org/2000/svg">
<path d="M53.1835 23.5616V18.908H55.6041C57.1827 18.908 58.2615 19.7821 58.2615 21.2476C58.2615 22.6617 57.1827 23.5616 55.6041 23.5616H53.1835ZM56.025 27.0582C59.8138 27.0582 62.4186 24.6671 62.4186 21.2219C62.4186 17.8281 59.8138 15.3857 56.025 15.3857H49V33.6143H53.1571V27.0582H56.025Z" fill="white"/>
<path d="M68.7181 33.6143V15H64.7188V33.6143H68.7181Z" fill="white"/>
<path d="M71.3294 30.092C71.3294 32.1231 72.987 33.9743 75.8549 33.9743C77.5914 33.9743 78.8544 33.2544 79.5385 32.1746C79.5385 33.0487 79.6437 33.5115 79.67 33.6143H83.2746C83.2483 33.4858 83.1168 32.6373 83.1168 31.6346V25.387C83.1168 22.7645 81.5644 20.4506 77.3283 20.4506C73.4869 20.4506 71.7504 22.8674 71.5925 24.6928L75.0656 25.387C75.1445 24.4357 75.9075 23.5101 77.302 23.5101C78.5649 23.5101 79.2227 24.1529 79.2227 24.8985C79.2227 25.3356 78.9859 25.6698 78.2755 25.7727L75.1971 26.2355C73.0396 26.544 71.3294 27.8295 71.3294 30.092ZM76.8284 31.1461C75.7234 31.1461 75.2761 30.5034 75.2761 29.8349C75.2761 28.935 75.9075 28.5494 76.7495 28.4208L79.2227 28.0352V28.6008C79.2227 30.5805 78.0124 31.1461 76.8284 31.1461Z" fill="white"/>
<path d="M90.4812 26.2869C90.4812 25.0014 91.3231 24.0501 92.6387 24.0501C94.0858 24.0501 94.7699 25.0014 94.7699 26.2612V33.6143H98.7691V25.5927C98.7691 22.7903 97.2957 20.502 94.0068 20.502C92.665 20.502 91.06 21.0934 90.3496 22.3018V20.8363H86.4819V33.6143H90.4812V26.2869Z" fill="white"/>
<path d="M114.233 33.6143V29.7578H106.55V26.2612H113.496V22.6874H106.55V19.2165H114.207V15.3857H102.393V33.6143H114.233Z" fill="white"/>
<path d="M130.572 19.8593C130.177 17.7253 128.415 15 123.758 15C120.179 15 117.075 17.4168 117.075 20.862C117.075 23.5616 118.995 25.6184 122.153 26.2097L124.705 26.6725C125.941 26.9039 126.704 27.5724 126.704 28.498C126.704 29.6292 125.705 30.4005 124.073 30.4005C121.521 30.4005 120.363 28.935 120.206 27.2639L116.391 28.1637C116.654 30.7348 118.864 34 124.021 34C128.467 34 130.914 31.0947 130.914 28.2409C130.914 25.6441 129.072 23.4073 125.52 22.7645L123.021 22.3018C121.732 22.0704 121.179 21.4276 121.179 20.5535C121.179 19.5507 122.179 18.5995 123.731 18.5995C125.994 18.5995 126.704 20.0392 126.836 20.8877L130.572 19.8593Z" fill="white"/>
<path d="M150.974 33.6143V23.8701H141.475V27.3153H147.08C146.843 28.3437 145.554 30.2977 142.475 30.2977C139.449 30.2977 136.871 28.318 136.871 24.5129C136.871 20.4506 139.844 18.8051 142.37 18.8051C145.475 18.8051 146.711 20.862 147.001 21.9932L151 20.6306C150.184 18.0852 147.711 15 142.37 15C137.108 15 132.661 18.7794 132.661 24.5129C132.661 30.272 136.924 34 142.107 34C144.764 34 146.527 32.9202 147.343 31.7632L147.606 33.6143H150.974Z" fill="white"/>
<path d="M28.1273 0H14.2545C6.38099 0 0 6.46043 0 14.432V40.1302C0 40.6105 0.384711 41 0.859091 41H7.81859C8.29298 41 8.67769 40.6105 8.67769 40.1302V14.432C8.67769 11.3189 11.1798 8.78571 14.2545 8.78571H26.3223V19.8323C26.3223 22.9454 23.8202 25.4786 20.7455 25.4786H14.4541C13.9798 25.4786 13.595 25.8681 13.595 26.3484V33.3945C13.595 33.8748 13.9798 34.2643 14.4541 34.2643H20.7455C28.619 34.2643 35 27.8039 35 19.8323V6.95829C35 3.116 31.9223 0 28.1273 0Z" fill="white"/>
</svg>
