<svg width="220" height="60" viewBox="0 0 220 60" fill="none" xmlns="http://www.w3.org/2000/svg">
<path d="M60.08 43V15.08H73.28C74.5867 15.08 75.76 15.3067 76.8 15.76C77.84 16.1867 78.72 16.7867 79.44 17.56C80.1867 18.3333 80.76 19.28 81.16 20.4C81.56 21.4933 81.76 22.6933 81.76 24C81.76 25.3333 81.56 26.5467 81.16 27.64C80.76 28.7333 80.1867 29.6667 79.44 30.44C78.72 31.2133 77.84 31.8267 76.8 32.28C75.76 32.7067 74.5867 32.92 73.28 32.92H66.16V43H60.08ZM66.16 27.64H72.56C73.4667 27.64 74.1733 27.4133 74.68 26.96C75.2133 26.48 75.48 25.7867 75.48 24.88V23.12C75.48 22.2133 75.2133 21.5333 74.68 21.08C74.1733 20.6 73.4667 20.36 72.56 20.36H66.16V27.64ZM91.89 43C89.8633 43 88.37 42.5067 87.41 41.52C86.4767 40.5333 86.01 39.1067 86.01 37.24V13.4H91.93V38.4H94.57V43H91.89ZM113.639 43C112.573 43 111.679 42.6667 110.959 42C110.266 41.3333 109.826 40.44 109.639 39.32H109.399C109.079 40.68 108.373 41.72 107.279 42.44C106.186 43.1333 104.839 43.48 103.239 43.48C101.133 43.48 99.5194 42.92 98.3994 41.8C97.2794 40.68 96.7194 39.2 96.7194 37.36C96.7194 35.1467 97.5194 33.5067 99.1194 32.44C100.746 31.3467 102.946 30.8 105.719 30.8H109.039V29.48C109.039 28.4667 108.773 27.6667 108.239 27.08C107.706 26.4667 106.813 26.16 105.559 26.16C104.386 26.16 103.453 26.4133 102.759 26.92C102.066 27.4267 101.493 28 101.039 28.64L97.5194 25.52C98.3727 24.2667 99.4394 23.2933 100.719 22.6C102.026 21.88 103.786 21.52 105.999 21.52C108.986 21.52 111.226 22.1733 112.719 23.48C114.213 24.7867 114.959 26.6933 114.959 29.2V38.4H116.919V43H113.639ZM105.439 39.36C106.426 39.36 107.266 39.1467 107.959 38.72C108.679 38.2933 109.039 37.6 109.039 36.64V34.16H106.159C103.839 34.16 102.679 34.9467 102.679 36.52V37.12C102.679 37.8933 102.919 38.4667 103.399 38.84C103.879 39.1867 104.559 39.36 105.439 39.36ZM120.893 43V22H126.813V25.56H127.053C127.426 24.4667 128.079 23.52 129.013 22.72C129.946 21.92 131.239 21.52 132.893 21.52C135.053 21.52 136.679 22.24 137.773 23.68C138.893 25.12 139.453 27.1733 139.453 29.84V43H133.533V30.32C133.533 28.96 133.319 27.96 132.893 27.32C132.466 26.6533 131.706 26.32 130.613 26.32C130.133 26.32 129.666 26.3867 129.213 26.52C128.759 26.6267 128.346 26.8133 127.973 27.08C127.626 27.3467 127.346 27.68 127.133 28.08C126.919 28.4533 126.813 28.8933 126.813 29.4V43H120.893ZM145.041 43V15.08H164.041V20.48H151.121V26.2H162.201V31.56H151.121V37.6H164.041V43H145.041ZM178.378 43.48C175.924 43.48 173.844 43.0667 172.138 42.24C170.431 41.3867 168.978 40.2933 167.778 38.96L171.778 34.92C173.671 37.0533 176.004 38.12 178.778 38.12C180.271 38.12 181.378 37.8133 182.098 37.2C182.818 36.5867 183.178 35.7733 183.178 34.76C183.178 33.9867 182.964 33.3467 182.538 32.84C182.111 32.3067 181.244 31.9467 179.938 31.76L177.178 31.4C174.218 31.0267 172.044 30.1333 170.658 28.72C169.298 27.3067 168.618 25.4267 168.618 23.08C168.618 21.8267 168.858 20.68 169.338 19.64C169.818 18.6 170.498 17.7067 171.378 16.96C172.284 16.2133 173.378 15.64 174.658 15.24C175.964 14.8133 177.444 14.6 179.098 14.6C181.204 14.6 183.058 14.9333 184.658 15.6C186.258 16.2667 187.631 17.24 188.778 18.52L184.738 22.6C184.071 21.8267 183.258 21.2 182.298 20.72C181.364 20.2133 180.178 19.96 178.738 19.96C177.378 19.96 176.364 20.2 175.698 20.68C175.031 21.16 174.698 21.8267 174.698 22.68C174.698 23.64 174.951 24.3333 175.458 24.76C175.991 25.1867 176.844 25.4933 178.018 25.68L180.778 26.12C183.658 26.5733 185.791 27.4667 187.178 28.8C188.564 30.1067 189.258 31.9733 189.258 34.4C189.258 35.7333 189.018 36.96 188.538 38.08C188.058 39.2 187.351 40.16 186.418 40.96C185.511 41.76 184.378 42.3867 183.018 42.84C181.658 43.2667 180.111 43.48 178.378 43.48ZM212.019 38.56H211.819C211.605 39.9733 210.885 41.1467 209.659 42.08C208.432 43.0133 206.765 43.48 204.659 43.48C203.059 43.48 201.565 43.1733 200.179 42.56C198.792 41.9467 197.579 41.04 196.539 39.84C195.499 38.64 194.685 37.1467 194.099 35.36C193.512 33.5733 193.219 31.5067 193.219 29.16C193.219 26.8133 193.525 24.7333 194.139 22.92C194.752 21.1067 195.605 19.5867 196.699 18.36C197.819 17.1333 199.152 16.2 200.699 15.56C202.245 14.92 203.965 14.6 205.859 14.6C208.365 14.6 210.525 15.1467 212.339 16.24C214.152 17.3067 215.579 18.92 216.619 21.08L211.659 23.92C211.232 22.8267 210.565 21.9067 209.659 21.16C208.752 20.3867 207.485 20 205.859 20C203.965 20 202.459 20.5467 201.339 21.64C200.219 22.7333 199.659 24.4533 199.659 26.8V31.28C199.659 33.6 200.219 35.32 201.339 36.44C202.459 37.5333 203.965 38.08 205.859 38.08C206.605 38.08 207.312 38 207.979 37.84C208.645 37.6533 209.232 37.3867 209.739 37.04C210.245 36.6667 210.632 36.2267 210.899 35.72C211.192 35.2133 211.339 34.6133 211.339 33.92V32.52H206.139V27.44H217.139V43H212.019V38.56Z" fill="#030000"/>
<path d="M45.924 25.9298C45.924 13.2754 35.6342 3 22.962 3C10.2898 3 0 13.2754 0 25.9298C0 35.2181 5.52507 43.2157 13.4832 46.8095C15.8909 46.0503 17.8171 44.2533 18.5014 41.7984C19.4391 38.3564 20.0727 34.8132 19.5405 31.2193C19.211 29.0174 18.2479 27.1699 16.195 26.0057C17.4623 27.8026 17.9185 29.7767 17.8678 32.3582C14.7758 31.0168 11.8612 29.9286 9.12397 28.5113C6.18402 26.9927 4.79008 24.2594 4.20716 21.0705C4.10579 20.4631 4.10579 19.8304 4.0551 18.8433C7.24849 20.5137 10.0871 19.7797 13.027 18.9445C16.854 17.8563 20.8837 20.0581 22.5058 23.8291C22.6579 24.1582 22.8099 24.5125 23.0127 25.0187C23.2408 24.4619 23.3675 24.1075 23.5196 23.7532C25.243 19.8304 29.3488 17.7297 33.4292 19.0205C36.2171 19.9063 38.9036 20.3112 41.7675 18.9699C41.8689 19.3495 41.9703 19.5266 41.9703 19.6785C41.6915 23.3483 40.3482 26.5372 37.0534 28.3847C34.6204 29.7514 31.9085 30.6625 29.2981 31.6496C27.2198 32.4341 26.2314 33.7755 26.4848 35.9774C26.6623 37.42 26.8397 38.8626 27.0931 40.3052C27.6253 43.4941 29.6782 45.8731 32.5422 46.7842C40.4749 43.1651 46 35.1928 46 25.9045L45.924 25.9298Z" fill="#027333"/>
</svg>
