<svg width="164" height="40" viewBox="0 0 164 40" xmlns="http://www.w3.org/2000/svg">
    <g fill="none" fill-rule="evenodd">
        <path d="M137.405 18.37c.224.116.329.23.28.519-.191 1.136-.351 2.278-.525 3.417-.008.058-.035.113-.06.192-.11-.076-.206-.139-.298-.209-1.505-1.146-3.419-.71-4.58.512-.758.796-1.12 1.765-1.052 2.883.077 1.304.934 2.226 2.203 2.42.94.144 1.795-.079 2.6-.56.11-.065.217-.135.39-.243-.09.627-.17 1.19-.254 1.753-.092.618-.195 1.234-.278 1.852-.032.239-.13.377-.359.465-2.08.794-4.155.93-6.182-.14-2.15-1.134-3.235-3.404-2.946-5.862.453-3.844 3.48-7.014 7.412-7.517 1.255-.16 2.488-.075 3.649.519zm-49.203-.108c1.944.72 2.97 2.185 3.253 4.238.147 1.058.053 2.105-.148 3.173h-9.676c-.336 1.53.272 2.702 1.714 2.918 1.161.173 2.204-.02 2.981-1.028a.38.38 0 0 1 .267-.124l1.959-.006h2.29a5.865 5.865 0 0 1-1.153 1.944c-1.33 1.511-3.031 2.275-4.971 2.528-1.334.174-2.658.096-3.943-.324-2.463-.806-3.792-2.711-3.777-5.367.024-4.407 2.938-7.8 7.204-8.358 1.357-.177 2.702-.074 4 .406zm31.358.14c.467.253.86.652 1.308 1.001l.202-1.167h4.6l-2.049 13.281h-4.604l.208-1.441c-.109.087-.174.127-.225.18-1.281 1.376-2.893 1.877-4.685 1.688-2.599-.275-4.31-1.899-4.82-4.52-.342-1.761-.012-3.452.77-5.04.93-1.892 2.312-3.337 4.274-4.099 1.675-.65 3.378-.773 5.021.117zm-16.195-6.406a7.247 7.247 0 0 1 2.071.37c1.405.457 2.219 1.48 2.311 2.996.09 1.48-.143 2.903-1.002 4.156a4.31 4.31 0 0 1-1.365 1.282l-.453.27c.378.106.704.175 1.014.288 1.386.505 2.112 1.525 2.203 3.028.1 1.638-.206 3.159-1.21 4.48-.935 1.231-2.202 1.955-3.654 2.3a13.11 13.11 0 0 1-2.754.361c-2.53.049-5.06.018-7.591.018-.081 0-.161-.01-.295-.02l3.015-19.53c.088-.01.156-.026.224-.026 2.495.003 4.991-.02 7.486.027zm-41.554-.035c.28-.003.374.09.433.368.693 3.227 1.402 6.45 2.107 9.673.025.114.058.227.105.412.101-.173.174-.29.24-.411 1.772-3.243 3.545-6.484 5.307-9.732.126-.232.264-.312.521-.31 1.4.013 2.8.006 4.201.006h.398l-.125 19.556h-4.962l.346-11.177-.08-.018c-.065.107-.134.212-.195.321-1.99 3.53-3.983 7.06-5.965 10.595-.128.228-.26.323-.52.308-.41-.025-.824-.026-1.234 0-.297.018-.421-.073-.493-.385-.796-3.461-1.61-6.918-2.42-10.375-.037-.16-.081-.318-.122-.477l-.08-.002-3.338 11.214H51c.173-.547.34-1.082.51-1.615 1.88-5.867 3.763-11.732 5.636-17.6.082-.259.19-.355.464-.352 1.4.015 2.801.015 4.201 0zM146.167 10l-1.986 12.927.074.035c.607-.525 1.215-1.05 1.821-1.576 1.14-.99 2.277-1.981 3.422-2.963.117-.1.285-.193.43-.194 1.954-.013 3.908-.009 5.862-.008.043 0 .085.009.21.023l-7.438 6.132 5.815 7.17h-.408c-1.907 0-3.814-.006-5.72.006-.253.001-.403-.086-.555-.283-1.251-1.627-2.513-3.245-3.772-4.865-.058-.074-.121-.144-.24-.284l-.836 5.399h-4.609L141.56 10h4.608zm-31.696 14.056c-.316.784-.431 1.612-.106 2.424.416 1.038 1.278 1.37 2.295 1.408l.029.09c.537-.153 1.108-.231 1.604-.471 1.203-.582 1.806-1.612 1.942-2.96.115-1.145-.572-2.23-1.653-2.532-1.7-.474-3.44.375-4.111 2.04zm-15.428-.604c-.077-.002-.208.163-.226.266-.13.732-.237 1.468-.347 2.203-.085.565-.164 1.132-.244 1.689.737 0 1.442.05 2.138-.016a5.439 5.439 0 0 0 1.596-.39c.93-.395 1.435-1.574 1.155-2.556-.202-.706-.761-1.014-1.402-1.083-.531-.057-1.066-.08-1.6-.093l-1.07-.02zm-14.777-2.5c-1.043.26-1.768.928-2.183 1.991h5.343c-.007-.576-.163-1.006-.513-1.371-.75-.785-1.68-.86-2.647-.62zm15.978-5.099c-.072-.005-.21.114-.222.192-.195 1.184-.374 2.371-.57 3.649.63-.057 1.23-.062 1.811-.175 1.14-.221 1.658-.847 1.76-2.013.066-.748-.254-1.303-.963-1.463-.59-.133-1.209-.145-1.816-.19z" fill="#303542"/>
        <path d="M18 33.481c.414 0 .75.34.75.76 0 .419-.336.759-.75.759a.755.755 0 0 1-.75-.76c0-.419.336-.759.75-.759zm4.875-6.835c1.243 0 2.25 1.02 2.25 2.278s-1.007 2.279-2.25 2.279-2.25-1.02-2.25-2.279c0-1.258 1.007-2.278 2.25-2.278zm-7.5.76c.828 0 1.5.68 1.5 1.518a1.51 1.51 0 0 1-1.5 1.519c-.828 0-1.5-.68-1.5-1.519a1.51 1.51 0 0 1 1.5-1.519zm21.75 1.518c.414 0 .75.34.75.76 0 .419-.336.759-.75.759a.755.755 0 0 1-.75-.76c0-.419.336-.759.75-.759zM31.5 26.266c.828 0 1.5.68 1.5 1.519a1.51 1.51 0 0 1-1.5 1.519c-.828 0-1.5-.68-1.5-1.52a1.51 1.51 0 0 1 1.5-1.518zM42 24.367c.828 0 1.5.68 1.5 1.52a1.51 1.51 0 0 1-1.5 1.518c-.828 0-1.5-.68-1.5-1.519a1.51 1.51 0 0 1 1.5-1.519zM20.25 5C22.321 5 24 6.7 24 8.797c0 1.313-.658 2.47-1.658 3.153l3.533 7.576a2.97 2.97 0 0 1 2.046.202l1.301-1.79a3.81 3.81 0 0 1-1.097-2.685c0-2.097 1.679-3.797 3.75-3.797 2.071 0 3.75 1.7 3.75 3.797a3.808 3.808 0 0 1-1.536 3.065l1.777 3.45a2.23 2.23 0 0 1 .509-.06c1.243 0 2.25 1.021 2.25 2.28 0 1.258-1.007 2.278-2.25 2.278s-2.25-1.02-2.25-2.279c0-.672.287-1.276.744-1.693l-1.777-3.448c-.382.133-.791.205-1.217.205-.63 0-1.225-.158-1.747-.437l-1.302 1.79c.496.541.799 1.267.799 2.064 0 1.678-1.343 3.038-3 3.038s-3-1.36-3-3.038c0-1.009.486-1.903 1.234-2.455l-3.534-7.577a3.707 3.707 0 0 1-1.752.097l-1.332 3.913a3.803 3.803 0 0 1 2.009 3.364c0 2.097-1.679 3.798-3.75 3.798-2.071 0-3.75-1.7-3.75-3.798 0-2.097 1.679-3.797 3.75-3.797.231 0 .457.02.677.061l1.332-3.912A3.803 3.803 0 0 1 16.5 8.797C16.5 6.7 18.179 5 20.25 5zM9.375 21.709c1.243 0 2.25 1.02 2.25 2.278 0 1.259-1.007 2.279-2.25 2.279s-2.25-1.02-2.25-2.279c0-1.258 1.007-2.278 2.25-2.278zM42 14.114c1.657 0 3 1.36 3 3.038 0 1.678-1.343 3.038-3 3.038s-3-1.36-3-3.038c0-1.678 1.343-3.038 3-3.038zM7.5 16.392c.828 0 1.5.68 1.5 1.52a1.51 1.51 0 0 1-1.5 1.518c-.828 0-1.5-.68-1.5-1.519a1.51 1.51 0 0 1 1.5-1.519zm4.125-7.215c1.657 0 3 1.36 3 3.038 0 1.678-1.343 3.038-3 3.038s-3-1.36-3-3.038c0-1.678 1.343-3.038 3-3.038zM37.875 6.9c1.243 0 2.25 1.02 2.25 2.278 0 1.259-1.007 2.279-2.25 2.279s-2.25-1.02-2.25-2.279c0-1.258 1.007-2.278 2.25-2.278zm-8.625 0c.828 0 1.5.68 1.5 1.519a1.51 1.51 0 0 1-1.5 1.519c-.828 0-1.5-.68-1.5-1.52a1.51 1.51 0 0 1 1.5-1.518z" fill="#7B88E3"/>
    </g>
</svg>
