<svg width="100" height="40" viewBox="0 0 100 40" xmlns="http://www.w3.org/2000/svg">
    <path d="m7.28 28 1.26-8.68h.04L12.04 28h1.56l3.62-8.68h.04l1.1 8.68h3.92L20 12.92h-3.9l-3.24 8.06-3.06-8.06H5.94L3.38 28h3.9zm26.24 0v-3.32h-4.66v-2.6h4.42v-3.32h-4.42v-2.52h4.66v-3.32h-8.58V28h8.58zm9.46 0c1.387 0 2.643-.303 3.77-.91 1.127-.607 1.69-1.697 1.69-3.27 0-1.053-.243-1.923-.73-2.61-.487-.687-1.27-1.103-2.35-1.25v-.02c.613-.307 1.043-.727 1.29-1.26.247-.533.37-1.14.37-1.82 0-1.44-.41-2.453-1.23-3.04-.82-.587-1.903-.887-3.25-.9h-5.6V28h6.04zm-1.56-9.14h-.07a.068.068 0 0 1-.05-.02h-.44v-2.92l.28.02h.38c.467.013.9.107 1.3.28.4.173.6.567.6 1.18s-.21 1.007-.63 1.18c-.42.173-.877.267-1.37.28zm.56 6.16h-.57a.068.068 0 0 1-.05-.02h-.5v-3.24l.4.02h1.06a3.87 3.87 0 0 1 1.48.32c.453.2.68.64.68 1.32 0 .587-.207.987-.62 1.2-.413.213-.867.34-1.36.38-.173.013-.347.02-.52.02zM54.28 28l1.04-2.62h5.4L61.7 28h4.18L60.2 12.92h-4.28L50.12 28h4.16zm5.38-5.62H56.4l1.62-4.8h.04l1.6 4.8zm15.76 6.02a6.665 6.665 0 0 0 1.5-.16 19.2 19.2 0 0 0 1.96-.54v-4.68a4.47 4.47 0 0 1-1.52 1.17c-.6.287-1.22.43-1.86.43-1.213 0-2.197-.387-2.95-1.16-.753-.773-1.13-1.753-1.13-2.94 0-1.173.37-2.163 1.11-2.97.74-.807 1.71-1.21 2.91-1.21.667 0 1.307.14 1.92.42.613.28 1.12.687 1.52 1.22V13.3a10.47 10.47 0 0 0-1.75-.56 8.321 8.321 0 0 0-1.83-.2h-.18a7.854 7.854 0 0 0-3.02.69 8.188 8.188 0 0 0-2.54 1.75 7.56 7.56 0 0 0-1.65 2.54c-.38.96-.57 1.953-.57 2.98 0 1.12.197 2.163.59 3.13.393.967 1.003 1.823 1.83 2.57a8.637 8.637 0 0 0 2.63 1.63c.967.38 1.977.57 3.03.57zm10.8-.4v-6.54h.04L91.32 28h5.08l-6.54-7.94 6-7.14H91l-4.74 6.22h-.04v-6.22H82.3V28h3.92z" fill="#303542" fill-rule="nonzero"/>
</svg>
