<svg width="640" height="1024" viewBox="0 0 640 1024" xmlns="http://www.w3.org/2000/svg" xmlns:xlink="http://www.w3.org/1999/xlink">
    <defs>
        <path id="a" d="M0 0h640v1024H0z"/>
        <path id="d" d="m69.983 0 167.24 634.872L0 600.824V0z"/>
        <path id="g" d="m0 0 207.295 306.666H0z"/>
        <path id="j" d="m0 0 412.533 504.381H207.295L0 197.716z"/>
        <path id="m" d="m0 0 305.709 603.128H159.116z"/>
        <path id="p" d="M402.376 0v321.532L0 261.473z"/>
        <path id="s" d="m149.415 0 102.922 389.115H0z"/>
        <path id="v" d="m0 0 131.358 18.032-42.931 113.415H0z"/>
        <path id="y" d="M216.337 0v164.307L0 305.687z"/>
        <path d="M70.418 0c19.629 73.91 62.815 236.572 111.545 420.362a139067.5 139067.5 0 0 0 136.795 52.505l7.588 2.908c32.877 12.6 65.66 25.152 97.101 37.186l216.547-306.766v2.38L426.47 511.057C503.967 460.675 587.652 406.109 640 371.505v2.11c-52.656 34.825-136.723 89.643-214.43 140.16A307659.071 307659.071 0 0 0 640 595.748v2.074a294275.184 294275.184 0 0 1-216.445-82.738 118454.607 118454.607 0 0 1-145.828 94.63l16.02 31.607 346.247 50.182v2.05L294.87 643.538 487.714 1024h-1.344L293.42 643.327l-54.466-7.893c23.756 89.697 47.22 178.38 68.502 258.938L413.476 1024h-1.88L308.352 897.765c11.91 45.087 23.125 87.585 33.308 126.235h-1.003a205333.014 205333.014 0 0 0-33.796-128.057L192.146 755.687 132.52 911.094 208.647 1024h-1.626l-75.09-111.37L89.202 1024h-1.16l42.89-111.792L0 893.608v-2.052l130.193 18.497L0 716.968v-2.41l131.78 195.44 59.577-155.275L74.269 611.565 0 600.801v-2.05l72.366 10.488L0 520.764v-2.298l74.498 91.082 162.836 23.599a856051.174 856051.174 0 0 0-55.795-210.55l-.2-.392C100.289 391.04 31.945 364.626 0 351.972v-2.064c31.733 12.561 99.908 38.903 180.83 70.018C131.855 235.209 88.58 72.206 69.408 0h1.01zM238.08 635.967l-45.333 118.156 113.218 138.426a472702.984 472702.984 0 0 0-67.885-256.582zM76.402 611.874l115.555 141.284 45.264-117.976-160.82-23.308zm200.314-1.503c-17.73 11.487-30.4 19.69-35.938 23.275l51.52 7.467-15.582-30.742zM183.67 426.803a821671.43 821671.43 0 0 1 42.142 159.009l7.518 28.383 5.008 18.909c2.24-1.448 16.049-10.388 37.568-24.33l-92.236-181.97zm-.662-3.957 93.909 185.272c34.277-22.212 87.51-56.73 144.574-93.823-77.752-29.757-163.467-62.605-238.483-91.449z" id="B"/>
        <path d="M59.198 18.397c32.51 12.595 58.716 25.02 58.532 27.75-.184 2.732-26.688-5.267-59.198-17.862C26.022 15.69-.183 3.265 0 .535" id="E"/>
        <path d="M88.8 31.973c54.617 21.162 98.819 39.424 98.727 40.787-.092 1.366-44.443-14.681-99.06-35.842A3954.7 3954.7 0 0 1 52.9 22.953l-2.607-1.041C18.501 9.2-.068 1.115 0 .105" id="G"/>
        <path d="M44.215 4.267c23.306 9.03 41.32 29.438 40.233 45.582C83.36 65.99 63.587 71.755 40.28 62.725S-1.04 33.289.047 17.147" id="I"/>
        <path d="M83.923 93.98c45.53 55.595 81.782 103.762 80.971 107.587-.803 3.785-37.631-37.309-82.546-92.074l-1.363-1.664C35.455 52.234-.798 4.067.013.242" id="K"/>
        <path d="M124.868 148.153c76.493 93.4 138.173 170.666 137.77 172.577-.408 1.912-62.746-72.253-139.239-165.653C46.908 61.678-.403 1.959 0 .047" id="M"/>
        <path d="M90.29 71.541c45.555 55.628 79.146 116.466 75.025 135.89-4.12 19.423-44.391-9.925-89.948-65.55C29.812 86.256-3.778 25.415.342 5.993" id="O"/>
        <linearGradient x1="63.068%" y1="43.083%" x2="40.689%" y2="54.928%" id="c">
            <stop stop-color="#FBFBFB" offset="0%"/>
            <stop stop-color="#EBEBEB" offset="100%"/>
        </linearGradient>
        <linearGradient x1="45.289%" y1="63.619%" x2="51.512%" y2="49.5%" id="e">
            <stop stop-color="#FFF" offset="0%"/>
            <stop stop-color="#DDE2E6" offset="100%"/>
        </linearGradient>
        <linearGradient x1="51.75%" y1="14.728%" x2="48.849%" y2="73.207%" id="h">
            <stop stop-color="#FFF" offset="0%"/>
            <stop stop-color="#DDE2E6" offset="100%"/>
        </linearGradient>
        <linearGradient x1="50.093%" y1="58.277%" x2="50.831%" y2="12.399%" id="k">
            <stop stop-color="#FFF" offset="0%"/>
            <stop stop-color="#DDE2E6" offset="100%"/>
        </linearGradient>
        <linearGradient x1="47.554%" y1="58.724%" x2="50.558%" y2="46.469%" id="n">
            <stop stop-color="#FFF" offset="0%"/>
            <stop stop-color="#DDE2E6" offset="100%"/>
        </linearGradient>
        <linearGradient x1="54.631%" y1="56.471%" x2="39.709%" y2="16.406%" id="q">
            <stop stop-color="#FFF" offset="0%"/>
            <stop stop-color="#DDE2E6" offset="100%"/>
        </linearGradient>
        <linearGradient x1="51.353%" y1="44.952%" x2="52.846%" y2=".958%" id="t">
            <stop stop-color="#FFF" offset="0%"/>
            <stop stop-color="#DDE2E6" offset="100%"/>
        </linearGradient>
        <linearGradient x1="52.884%" y1="-14.873%" x2="36.369%" y2="106.305%" id="w">
            <stop stop-color="#FFF" offset="0%"/>
            <stop stop-color="#DDE2E6" offset="100%"/>
        </linearGradient>
        <linearGradient x1="55.764%" y1="49.772%" x2="29.242%" y2="81.098%" id="z">
            <stop stop-color="#FFF" offset="0%"/>
            <stop stop-color="#DDE2E6" offset="100%"/>
        </linearGradient>
        <linearGradient x1="52.557%" y1="28.635%" x2="43.306%" y2="84.668%" id="C">
            <stop stop-color="#FBFBFB" offset="0%"/>
            <stop stop-color="#EBEBEB" offset="100%"/>
        </linearGradient>
    </defs>
    <g fill="none" fill-rule="evenodd">
        <mask id="b" fill="#fff">
            <use xlink:href="#a"/>
        </mask>
        <use fill="#D8D8D8" xlink:href="#a"/>
        <g mask="url(#b)">
            <path fill="url(#c)" d="M0 1024h640V0H0z"/>
            <g transform="translate(.003 .01)">
                <mask id="f" fill="#fff">
                    <use xlink:href="#d"/>
                </mask>
                <path fill="url(#e)" mask="url(#f)" d="m59.732-38.912 177.491 673.784-256.85-36.864L0-16.384z"/>
            </g>
            <g transform="translate(.003 717.33)">
                <mask id="i" fill="#fff">
                    <use xlink:href="#g"/>
                </mask>
                <path fill="url(#h)" mask="url(#i)" d="m-23.893-35.346 322.555 477.178-318.288-47.103z"/>
            </g>
            <g transform="translate(.003 519.615)">
                <mask id="l" fill="#fff">
                    <use xlink:href="#j"/>
                </mask>
                <path fill="url(#k)" mask="url(#l)" d="m-19.626-23.996 542.711 663.544H298.662L-23.893 162.37z"/>
            </g>
            <g transform="translate(181.334 420.868)">
                <mask id="o" fill="#fff">
                    <use xlink:href="#m"/>
                </mask>
                <path fill="url(#n)" mask="url(#o)" d="M215.037 815.094 0 0l402.767 794.614z"/>
            </g>
            <g transform="translate(237.618 372.74)">
                <mask id="r" fill="#fff">
                    <use xlink:href="#p"/>
                </mask>
                <path fill="url(#q)" mask="url(#r)" d="M0 261.473 402.376 0v321.532z"/>
            </g>
            <g transform="translate(87.812 634.881)">
                <mask id="u" fill="#fff">
                    <use xlink:href="#s"/>
                </mask>
                <path fill="url(#t)" mask="url(#u)" d="M-11.01 417.787 149.415 0l158.717 600.056z"/>
            </g>
            <g transform="translate(.003 892.55)">
                <mask id="x" fill="#fff">
                    <use xlink:href="#v"/>
                </mask>
                <path fill="url(#w)" mask="url(#x)" d="m-19.626-2.695 150.984 20.727-54.56 144.135H-8.532z"/>
            </g>
            <g transform="translate(423.656 207.635)">
                <mask id="A" fill="#fff">
                    <use xlink:href="#y"/>
                </mask>
                <path fill="url(#z)" mask="url(#A)" d="m263.27-66.315 5.12 196.605L0 305.687z"/>
            </g>
            <mask id="D" fill="#fff">
                <use xlink:href="#B"/>
            </mask>
            <path d="M240.778 633.646c5.539-3.586 18.209-11.788 35.938-23.275l15.582 30.742-51.52-7.467zm-48.031 120.477 45.333-118.156c23.521 88.812 46.762 176.636 67.885 256.582L192.747 754.123zM76.402 611.874l160.82 23.308-45.265 117.976L76.402 611.874zm199.504-3.1a81026.184 81026.184 0 0 1-37.568 24.33c-18.35-69.29-36.862-139.144-54.668-206.3l92.236 181.97zm1.01-.656-93.908-185.272c75.016 28.844 160.73 61.692 238.483 91.449a125080.301 125080.301 0 0 1-144.574 93.823zm.811 1.598c34.794-22.542 88.485-57.356 145.828-94.63a298952.13 298952.13 0 0 0 233.012 89.063l.133-2.023a305498.4 305498.4 0 0 1-231.13-88.352C549.792 433.02 690.267 341.271 692.692 337.78l-.437-1.76c-2.695 3.589-142.119 94.64-265.785 175.037l261.1-369.879-.434-1.765L423.447 512.96c-78.605-30.084-165.586-63.415-241.484-92.599A1096771.541 1096771.541 0 0 0 59.668-40.475l-.718 1.1c1.356 5.105 56.546 212.88 121.88 459.301C69.82 377.242-17.2 343.541-19.062 342.074l-.27 1.942c1.865 1.493 89.266 35.35 200.67 78.19l.2.39c18.141 68.423 37.05 139.773 55.796 210.55L74.498 609.549l-93.927-114.84-.388 1.825 92.183 112.706-91.537-13.267-.051 2.044 93.491 13.55 117.088 143.157-59.576 155.275-155.02-229.91-.449 1.745 153.881 228.22-149.365-21.22-.05 2.043 150.154 21.332-54.017 140.79.628 1.388L131.93 912.63l253.122 375.404.449-1.745L132.52 911.094l59.626-155.407 114.715 140.256c50.33 190.49 88.409 335.378 89.097 340.277l.83-.457c-.293-3.524-38.164-147.69-88.436-337.998l214.543 262.311.387-1.825-215.826-263.879a443322.614 443322.614 0 0 0-68.502-258.938l54.466 7.893 290.41 572.948.542-1.586L294.87 643.54l392.457 56.875.051-2.043-393.63-57.049-16.02-31.606z" fill="url(#C)" mask="url(#D)"/>
            <g>
                <g transform="translate(286.401 459.104)">
                    <mask id="F" fill="#fff">
                        <use xlink:href="#E"/>
                    </mask>
                    <path d="M117.73 46.147c-.184 2.732-26.688-5.267-59.198-17.862C26.022 15.69-.183 3.265 0 .535c.184-2.732 26.688 5.267 59.198 17.862 32.51 12.595 58.716 25.02 58.532 27.75" mask="url(#F)"/>
                </g>
                <g transform="translate(256.633 448)">
                    <mask id="H" fill="#fff">
                        <use xlink:href="#G"/>
                    </mask>
                    <path d="M187.527 72.76c-.092 1.366-44.443-14.681-99.06-35.842C33.85 15.755-.092 1.47 0 .105c.092-1.366 34.182 10.707 88.8 31.868 54.617 21.162 98.819 39.424 98.727 40.787" mask="url(#H)"/>
                </g>
                <g transform="translate(303.02 448.948)">
                    <mask id="J" fill="#fff">
                        <use xlink:href="#I"/>
                    </mask>
                    <path d="M84.448 49.849C83.36 65.99 63.587 71.755 40.28 62.725S-1.04 33.289.047 17.147C1.133 1.003 20.908-4.76 44.215 4.267c23.306 9.03 41.32 29.438 40.233 45.582" mask="url(#J)"/>
                </g>
                <g transform="translate(85.2 624.025)">
                    <mask id="L" fill="#fff">
                        <use xlink:href="#K"/>
                    </mask>
                    <path d="M164.894 201.567c-.811 3.823-38.379-38.144-83.91-93.738C35.455 52.234-.797 4.067.015.242.824-3.581 38.392 38.386 83.922 93.98c45.53 55.595 81.782 103.762 80.971 107.587" mask="url(#L)"/>
                </g>
                <g transform="translate(43.52 573.314)">
                    <mask id="N" fill="#fff">
                        <use xlink:href="#M"/>
                    </mask>
                    <path d="M262.638 320.73c-.408 1.912-62.746-72.253-139.239-165.653C46.908 61.678-.403 1.959 0 .047c.409-1.913 48.377 54.708 124.868 148.106 76.493 93.4 138.173 170.666 137.77 172.577" mask="url(#N)"/>
                </g>
                <g transform="translate(84.826 618.218)">
                    <mask id="P" fill="#fff">
                        <use xlink:href="#O"/>
                    </mask>
                    <path d="M165.315 207.431c-4.12 19.423-44.391-9.925-89.948-65.55C29.812 86.256-3.778 25.415.342 5.993c4.12-19.424 44.392 9.923 89.947 65.548 45.556 55.628 79.147 116.466 75.026 135.89" mask="url(#P)"/>
                </g>
            </g>
        </g>
    </g>
</svg>
