<svg width="1000" height="1600" viewBox="0 0 1000 1600" xmlns="http://www.w3.org/2000/svg" xmlns:xlink="http://www.w3.org/1999/xlink">
    <defs>
        <path id="a" d="M0 0h1000v1600H0z"/>
        <path id="c" d="M0 0h1054v453H0z"/>
        <path d="M0 0v434.351a217.13 217.13 0 0 0 14.343 5.645C278.618 509.299 284.1 280.392 400.969 251.78c28.95-5.29 57.183 1.62 85.445 8.527 28.037 6.852 56.105 13.706 84.933 8.648 70.03-13.379 105.302-84.214 162.426-119.55 22.984-14.366 48.442-20.678 75.541-19.233 56.203 3.04 115.136 34.217 170.697 11.264 43.625-18.044 70.895-64.438 73.752-110.302.653-10.562-.06-20.983-1.944-31.135" id="e"/>
        <path d="M0 0v434.351a217.13 217.13 0 0 0 14.343 5.645C278.618 509.299 284.1 280.392 400.969 251.78c28.95-5.29 57.183 1.62 85.445 8.527 28.037 6.852 56.105 13.706 84.933 8.648 70.03-13.379 105.302-84.214 162.426-119.55 22.984-14.366 48.442-20.678 75.541-19.233 56.203 3.04 115.136 34.217 170.697 11.264 43.625-18.044 70.895-64.438 73.752-110.302.653-10.562-.06-20.983-1.944-31.135" id="g"/>
        <path d="M0 0v434.351a217.13 217.13 0 0 0 14.343 5.645C278.618 509.299 284.1 280.392 400.969 251.78c28.95-5.29 57.183 1.62 85.445 8.527 28.037 6.852 56.105 13.706 84.933 8.648 70.03-13.379 105.302-84.214 162.426-119.55 22.984-14.366 48.442-20.678 75.541-19.233 56.203 3.04 115.136 34.217 170.697 11.264 43.625-18.044 70.895-64.438 73.752-110.302.653-10.562-.06-20.983-1.944-31.135" id="i"/>
        <path d="M0 0v434.351a217.13 217.13 0 0 0 14.343 5.645C278.618 509.299 284.1 280.392 400.969 251.78c28.95-5.29 57.183 1.62 85.445 8.527 28.037 6.852 56.105 13.706 84.933 8.648 70.03-13.379 105.302-84.214 162.426-119.55 22.984-14.366 48.442-20.678 75.541-19.233 56.203 3.04 115.136 34.217 170.697 11.264 43.625-18.044 70.895-64.438 73.752-110.302.653-10.562-.06-20.983-1.944-31.135H0z" id="k"/>
        <path d="M0 0v434.351a217.13 217.13 0 0 0 14.343 5.645C278.618 509.299 284.1 280.392 400.969 251.78c28.95-5.29 57.183 1.62 85.445 8.527 28.037 6.852 56.105 13.706 84.933 8.648 70.03-13.379 105.302-84.214 162.426-119.55 22.984-14.366 48.442-20.678 75.541-19.233 56.203 3.04 115.136 34.217 170.697 11.264 43.625-18.044 70.895-64.438 73.752-110.302.653-10.562-.06-20.983-1.944-31.135" id="l"/>
        <path d="M0 0v434.351a217.13 217.13 0 0 0 14.343 5.645C278.618 509.299 284.1 280.392 400.969 251.78c28.95-5.29 57.183 1.62 85.445 8.527 28.037 6.852 56.105 13.706 84.933 8.648 70.03-13.379 105.302-84.214 162.426-119.55 22.984-14.366 48.442-20.678 75.541-19.233 56.203 3.04 115.136 34.217 170.697 11.264 43.625-18.044 70.895-64.438 73.752-110.302.653-10.562-.06-20.983-1.944-31.135" id="m"/>
        <path d="M0 0v434.351a217.13 217.13 0 0 0 14.343 5.645C278.618 509.299 284.1 280.392 400.969 251.78c28.95-5.29 57.183 1.62 85.445 8.527 28.037 6.852 56.105 13.706 84.933 8.648 70.03-13.379 105.302-84.214 162.426-119.55 22.984-14.366 48.442-20.678 75.541-19.233 56.203 3.04 115.136 34.217 170.697 11.264 43.625-18.044 70.895-64.438 73.752-110.302.653-10.562-.06-20.983-1.944-31.135" id="o"/>
        <path d="M0 0v434.351a217.13 217.13 0 0 0 14.343 5.645C278.618 509.299 284.1 280.392 400.969 251.78c28.95-5.29 57.183 1.62 85.445 8.527 28.037 6.852 56.105 13.706 84.933 8.648 70.03-13.379 105.302-84.214 162.426-119.55 22.984-14.366 48.442-20.678 75.541-19.233 56.203 3.04 115.136 34.217 170.697 11.264 43.625-18.044 70.895-64.438 73.752-110.302.653-10.562-.06-20.983-1.944-31.135" id="q"/>
        <path d="M0 0v434.351a217.13 217.13 0 0 0 14.343 5.645C278.618 509.299 284.1 280.392 400.969 251.78c28.95-5.29 57.183 1.62 85.445 8.527 28.037 6.852 56.105 13.706 84.933 8.648 70.03-13.379 105.302-84.214 162.426-119.55 22.984-14.366 48.442-20.678 75.541-19.233 56.203 3.04 115.136 34.217 170.697 11.264 43.625-18.044 70.895-64.438 73.752-110.302.653-10.562-.06-20.983-1.944-31.135" id="s"/>
        <path d="M0 0v434.351a217.13 217.13 0 0 0 14.343 5.645C278.618 509.299 284.1 280.392 400.969 251.78c28.95-5.29 57.183 1.62 85.445 8.527 28.037 6.852 56.105 13.706 84.933 8.648 70.03-13.379 105.302-84.214 162.426-119.55 22.984-14.366 48.442-20.678 75.541-19.233 56.203 3.04 115.136 34.217 170.697 11.264 43.625-18.044 70.895-64.438 73.752-110.302.653-10.562-.06-20.983-1.944-31.135H0z" id="u"/>
        <path d="M0 0v434.351a217.13 217.13 0 0 0 14.343 5.645C278.618 509.299 284.1 280.392 400.969 251.78c28.95-5.29 57.183 1.62 85.445 8.527 28.037 6.852 56.105 13.706 84.933 8.648 70.03-13.379 105.302-84.214 162.426-119.55 22.984-14.366 48.442-20.678 75.541-19.233 56.203 3.04 115.136 34.217 170.697 11.264 43.625-18.044 70.895-64.438 73.752-110.302.653-10.562-.06-20.983-1.944-31.135" id="w"/>
        <path d="M0 0v434.351a217.13 217.13 0 0 0 14.343 5.645C278.618 509.299 284.1 280.392 400.969 251.78c28.95-5.29 57.183 1.62 85.445 8.527 28.037 6.852 56.105 13.706 84.933 8.648 70.03-13.379 105.302-84.214 162.426-119.55 22.984-14.366 48.442-20.678 75.541-19.233 56.203 3.04 115.136 34.217 170.697 11.264 43.625-18.044 70.895-64.438 73.752-110.302.653-10.562-.06-20.983-1.944-31.135" id="y"/>
        <path id="A" d="M0 0h391.085v156.481H0z"/>
        <path id="C" d="M0 0h152.98v688.306H0z"/>
        <path id="E" d="M0 0h741.342v513.012H0z"/>
        <path id="G" d="M0 0h480.67v420.644H0z"/>
        <path id="I" d="M0 0h151.262v75.61H0z"/>
        <path id="K" d="M0 0h151.264v75.607H0z"/>
        <path id="M" d="M0 0h58.221v116.405H0z"/>
        <path d="M0 239.322C0 310.904 31.58 375.143 81.635 419h317.733C449.422 375.143 481 310.904 481 239.322 481 107.148 373.326 0 240.501 0S0 107.148 0 239.322" id="O"/>
        <path d="M0 239.322C0 310.904 31.58 375.143 81.635 419h317.733C449.422 375.143 481 310.904 481 239.322 481 107.148 373.326 0 240.501 0S0 107.148 0 239.322" id="Q"/>
        <path d="M0 239.322C0 310.904 31.58 375.143 81.635 419h317.733C449.422 375.143 481 310.904 481 239.322 481 107.148 373.326 0 240.501 0S0 107.148 0 239.322" id="S"/>
        <path d="M0 239.322C0 310.904 31.58 375.143 81.635 419h317.733C449.422 375.143 481 310.904 481 239.322 481 107.148 373.326 0 240.501 0S0 107.148 0 239.322z" id="U"/>
        <path d="M0 239.322C0 310.904 31.58 375.143 81.635 419h317.733C449.422 375.143 481 310.904 481 239.322 481 107.148 373.326 0 240.501 0S0 107.148 0 239.322" id="W"/>
        <path d="M0 239.322C0 310.904 31.58 375.143 81.635 419h317.733C449.422 375.143 481 310.904 481 239.322 481 107.148 373.326 0 240.501 0S0 107.148 0 239.322" id="Y"/>
        <path id="aa" d="M0 0h724.687v287H0z"/>
        <path id="ab" d="M0 0h178.873v89.209H0z"/>
    </defs>
    <g fill="none" fill-rule="evenodd">
        <mask id="b" fill="#fff">
            <use xlink:href="#a"/>
        </mask>
        <use fill="#D8D8D8" xlink:href="#a"/>
        <g mask="url(#b)">
            <path fill="#FFF6EE" d="M1 1v1599h1067V1z"/>
            <g transform="rotate(90 532.5 533)">
                <mask id="d" fill="#fff">
                    <use xlink:href="#c"/>
                </mask>
                <path d="M1053.763 31.135c-2.857 45.864-30.127 92.259-73.75 110.302-55.564 22.953-114.496-8.225-170.699-11.264-27.1-1.445-52.557 4.867-75.541 19.234-57.126 35.335-92.396 106.17-162.426 119.547-57.887 10.159-112.705-27.714-170.379-17.172-116.868 28.61-122.35 257.52-386.623 188.212-126.606-44.711-181.957-195.215-162.36-319.682C-128.078 21.402-47.398-62.164 49.913-88.497c125.199-33.877 246.261 40.53 371.31 37.065 187.997-4.792 387.88-175.44 566.297-48.435 39.89 31.008 69.441 79.23 66.243 131.002" fill="#CACEEB" mask="url(#d)"/>
            </g>
            <g transform="rotate(90 532.5 533)">
                <mask id="f" fill="#fff">
                    <use xlink:href="#e"/>
                </mask>
                <path d="m766.373 216.364.767.744-2.537 2.593-.768-.744c-19.722-19.149-50.638-19.149-70.381 0-10.576 10.265-24.157 15.387-37.718 15.387-13.581 0-27.142-5.122-37.717-15.387-19.744-19.149-50.66-19.149-70.403 0-10.213 9.925-23.624 15.387-37.717 15.387-14.094 0-27.484-5.462-37.718-15.387-19.743-19.17-50.66-19.17-70.381 0-21.151 20.53-54.306 20.53-75.457 0-19.722-19.149-50.659-19.149-70.381 0-21.151 20.53-54.306 20.53-75.456 0-19.723-19.149-50.639-19.149-70.382 0-21.15 20.53-54.284 20.53-75.435 0-19.743-19.149-50.66-19.149-70.403 0l-.746.744-2.537-2.593.767-.744c21.151-20.53 54.284-20.53 75.435 0 19.744 19.149 50.66 19.149 70.403 0 21.15-20.53 54.284-20.53 75.435 0 19.743 19.149 50.66 19.149 70.382 0 21.15-20.53 54.305-20.53 75.456 0 19.722 19.149 50.66 19.149 70.381 0 21.151-20.53 54.306-20.53 75.456 0 19.723 19.149 50.639 19.149 70.382 0 21.15-20.53 54.284-20.53 75.435 0 19.743 19.149 50.66 19.149 70.403 0 21.13-20.53 54.284-20.53 75.435 0" fill="#FFF6EE" mask="url(#f)"/>
            </g>
            <g transform="rotate(90 532.5 533)">
                <mask id="h" fill="#fff">
                    <use xlink:href="#g"/>
                </mask>
                <path d="m766.373 173.497.767.744-2.537 2.593-.768-.744c-19.722-19.149-50.638-19.149-70.381 0-21.15 20.53-54.284 20.53-75.435 0-19.744-19.149-50.66-19.149-70.403 0-10.213 9.925-23.624 15.408-37.717 15.408-14.094 0-27.484-5.483-37.718-15.408-19.743-19.149-50.66-19.149-70.381 0-10.576 10.265-24.158 15.408-37.74 15.408-13.56 0-27.141-5.143-37.717-15.408-19.722-19.149-50.638-19.149-70.381 0-21.151 20.53-54.306 20.53-75.456 0-19.723-19.149-50.639-19.149-70.382 0-21.15 20.53-54.284 20.53-75.435 0-19.743-19.149-50.66-19.149-70.403 0l-.746.744-2.537-2.593.767-.744c21.151-20.53 54.284-20.53 75.435 0 19.744 19.17 50.66 19.17 70.403 0 21.15-20.509 54.284-20.509 75.435 0 19.743 19.17 50.66 19.149 70.382 0 21.15-20.53 54.305-20.53 75.456 0 19.722 19.17 50.66 19.17 70.381 0 21.151-20.53 54.306-20.53 75.456 0 19.723 19.17 50.639 19.17 70.382 0 21.15-20.53 54.284-20.53 75.435 0 19.743 19.17 50.66 19.17 70.403 0 21.13-20.53 54.284-20.53 75.435 0" fill="#FFF6EE" mask="url(#h)"/>
            </g>
            <g transform="rotate(90 532.5 533)">
                <mask id="j" fill="#fff">
                    <use xlink:href="#i"/>
                </mask>
                <path d="m766.373 130.651.767.744-2.537 2.593-.768-.744c-19.722-19.148-50.638-19.148-70.381 0-10.576 10.265-24.136 15.387-37.718 15.387-13.581 0-27.142-5.122-37.717-15.387-19.744-19.148-50.66-19.148-70.403 0-10.213 9.925-23.624 15.387-37.717 15.387-14.094 0-27.484-5.462-37.718-15.387-19.743-19.148-50.66-19.148-70.381 0-21.173 20.53-54.306 20.53-75.457 0-19.722-19.148-50.638-19.148-70.381 0-21.151 20.53-54.284 20.53-75.456 0-19.723-19.148-50.639-19.148-70.382 0-21.15 20.53-54.284 20.53-75.435 0-19.743-19.148-50.66-19.148-70.403 0l-.746.744-2.537-2.593.767-.744c21.151-20.53 54.284-20.53 75.435 0 19.744 19.15 50.66 19.15 70.403 0 21.15-20.53 54.284-20.53 75.435 0 19.743 19.15 50.66 19.15 70.382 0 21.15-20.53 54.305-20.53 75.456 0 19.722 19.15 50.66 19.15 70.381 0 21.151-20.53 54.306-20.53 75.456 0 19.723 19.15 50.639 19.15 70.382 0 21.15-20.53 54.284-20.53 75.435 0 19.743 19.15 50.66 19.15 70.403 0 21.13-20.53 54.284-20.53 75.435 0" fill="#FFF6EE" mask="url(#j)"/>
            </g>
            <g transform="rotate(90 532.5 533)">
                <mask id="n" fill="#fff">
                    <use xlink:href="#m"/>
                </mask>
                <path d="m766.373 87.806.767.723-2.537 2.592-.768-.743c-19.722-19.15-50.638-19.15-70.381 0-10.576 10.265-24.136 15.408-37.718 15.408-13.581 0-27.142-5.143-37.717-15.408-19.744-19.15-50.66-19.15-70.403 0-10.213 9.925-23.624 15.408-37.717 15.408-14.094 0-27.484-5.462-37.718-15.408-19.743-19.15-50.66-19.15-70.381 0-21.151 20.53-54.306 20.53-75.457 0-19.722-19.15-50.659-19.15-70.381 0-21.151 20.53-54.284 20.53-75.456 0-19.723-19.15-50.639-19.15-70.382 0-21.15 20.53-54.284 20.53-75.435 0-19.743-19.15-50.66-19.15-70.403 0l-.746.743-2.537-2.592.767-.723c21.151-20.551 54.284-20.551 75.435 0 19.744 19.149 50.66 19.149 70.403 0 21.15-20.53 54.284-20.53 75.435 0 19.743 19.149 50.66 19.149 70.382 0 21.15-20.551 54.305-20.551 75.456 0 19.722 19.149 50.66 19.149 70.381 0 21.151-20.551 54.284-20.53 75.456 0 19.723 19.149 50.639 19.149 70.382 0 21.15-20.551 54.284-20.53 75.435 0 19.743 19.149 50.66 19.149 70.403 0 21.15-20.551 54.284-20.551 75.435 0" fill="#FFF6EE" mask="url(#n)"/>
            </g>
            <g transform="rotate(90 532.5 533)">
                <mask id="p" fill="#fff">
                    <use xlink:href="#o"/>
                </mask>
                <path d="m766.373 477.416.767.744-2.537 2.593-.768-.744c-19.722-19.149-50.638-19.149-70.381 0-10.576 10.265-24.157 15.387-37.718 15.387-13.581 0-27.142-5.122-37.717-15.387-19.744-19.149-50.66-19.149-70.403 0-10.213 9.925-23.624 15.387-37.717 15.387-14.094 0-27.484-5.462-37.718-15.387-19.743-19.17-50.66-19.17-70.381 0-21.151 20.53-54.306 20.53-75.457 0-19.722-19.149-50.659-19.149-70.381 0-21.151 20.53-54.306 20.53-75.456 0-19.723-19.149-50.639-19.149-70.382 0-21.15 20.53-54.284 20.53-75.435 0-19.743-19.149-50.66-19.149-70.403 0l-.746.744-2.537-2.593.767-.744c21.151-20.53 54.284-20.53 75.435 0 19.744 19.149 50.66 19.149 70.403 0 21.15-20.53 54.284-20.53 75.435 0 19.743 19.149 50.66 19.149 70.382 0 21.15-20.53 54.305-20.53 75.456 0 19.722 19.149 50.66 19.149 70.381 0 21.151-20.53 54.306-20.53 75.456 0 19.723 19.149 50.639 19.149 70.382 0 21.15-20.53 54.284-20.53 75.435 0 19.743 19.149 50.66 19.149 70.403 0 21.13-20.53 54.284-20.53 75.435 0" fill="#FFF6EE" mask="url(#p)"/>
            </g>
            <g transform="rotate(90 532.5 533)">
                <mask id="r" fill="#fff">
                    <use xlink:href="#q"/>
                </mask>
                <path d="m766.373 434.55.767.743-2.537 2.593-.768-.744c-19.722-19.149-50.638-19.149-70.381 0-21.15 20.53-54.284 20.53-75.435 0-19.744-19.149-50.66-19.149-70.403 0-10.213 9.925-23.624 15.408-37.717 15.408-14.094 0-27.484-5.483-37.718-15.408-19.743-19.149-50.66-19.149-70.381 0-10.576 10.265-24.158 15.408-37.74 15.408-13.56 0-27.141-5.143-37.717-15.408-19.722-19.149-50.638-19.149-70.381 0-21.151 20.53-54.306 20.53-75.456 0-19.723-19.149-50.639-19.149-70.382 0-21.15 20.53-54.284 20.53-75.435 0-19.743-19.149-50.66-19.149-70.403 0l-.746.744-2.537-2.593.767-.744c21.151-20.53 54.284-20.53 75.435 0 19.744 19.17 50.66 19.17 70.403 0 21.15-20.509 54.284-20.509 75.435 0 19.743 19.17 50.66 19.149 70.382 0 21.15-20.53 54.305-20.53 75.456 0 19.722 19.17 50.66 19.17 70.381 0 21.151-20.53 54.306-20.53 75.456 0 19.723 19.17 50.639 19.17 70.382 0 21.15-20.53 54.284-20.53 75.435 0 19.743 19.17 50.66 19.17 70.403 0 21.13-20.53 54.284-20.53 75.435 0" fill="#FFF6EE" mask="url(#r)"/>
            </g>
            <g transform="rotate(90 532.5 533)">
                <mask id="t" fill="#fff">
                    <use xlink:href="#s"/>
                </mask>
                <path d="m766.373 391.704.767.743-2.537 2.593-.768-.744c-19.722-19.148-50.638-19.148-70.381 0-10.576 10.265-24.136 15.387-37.718 15.387-13.581 0-27.142-5.122-37.717-15.387-19.744-19.148-50.66-19.148-70.403 0-10.213 9.925-23.624 15.387-37.717 15.387-14.094 0-27.484-5.462-37.718-15.387-19.743-19.148-50.66-19.148-70.381 0-21.173 20.53-54.306 20.53-75.457 0-19.722-19.148-50.638-19.148-70.381 0-21.151 20.53-54.284 20.53-75.456 0-19.723-19.148-50.639-19.148-70.382 0-21.15 20.53-54.284 20.53-75.435 0-19.743-19.148-50.66-19.148-70.403 0l-.746.744-2.537-2.593.767-.743c21.151-20.53 54.284-20.53 75.435 0 19.744 19.148 50.66 19.148 70.403 0 21.15-20.53 54.284-20.53 75.435 0 19.743 19.148 50.66 19.148 70.382 0 21.15-20.53 54.305-20.53 75.456 0 19.722 19.148 50.66 19.148 70.381 0 21.151-20.53 54.306-20.53 75.456 0 19.723 19.148 50.639 19.148 70.382 0 21.15-20.53 54.284-20.53 75.435 0 19.743 19.148 50.66 19.148 70.403 0 21.13-20.53 54.284-20.53 75.435 0" fill="#FFF6EE" mask="url(#t)"/>
            </g>
            <g transform="rotate(90 532.5 533)">
                <mask id="v" fill="#fff">
                    <use xlink:href="#u"/>
                </mask>
                <path d="m-36.46 266.461-2.537-2.593.767-.744c21.151-20.509 54.284-20.53 75.435 0 19.744 19.17 50.66 19.17 70.403 0 21.15-20.509 54.284-20.509 75.435 0 19.743 19.17 50.66 19.17 70.382 0 21.15-20.509 54.305-20.509 75.456 0 19.722 19.17 50.66 19.17 70.381 0 21.151-20.53 54.306-20.53 75.456 0 19.723 19.17 50.639 19.17 70.382 0 21.15-20.53 54.284-20.53 75.435 0 19.743 19.17 50.66 19.17 70.403 0 21.13-20.53 54.284-20.53 75.435 0l.767.744-2.537 2.593-.768-.744c-19.722-19.149-50.638-19.149-70.381 0-21.15 20.53-54.284 20.53-75.435 0-19.744-19.149-50.66-19.149-70.403 0-10.213 9.946-23.624 15.408-37.717 15.408-14.094 0-27.484-5.462-37.718-15.408-19.743-19.149-50.66-19.149-70.381 0-10.576 10.265-24.158 15.408-37.74 15.408-13.56 0-27.141-5.143-37.717-15.408-19.722-19.149-50.638-19.149-70.381 0-21.151 20.53-54.284 20.53-75.456 0-19.723-19.149-50.639-19.149-70.382 0-21.15 20.53-54.284 20.53-75.435 0-19.743-19.149-50.66-19.149-70.403 0l-.746.744z" fill="#FFF6EE" mask="url(#v)"/>
            </g>
            <g transform="rotate(90 532.5 533)">
                <mask id="x" fill="#fff">
                    <use xlink:href="#w"/>
                </mask>
                <path d="m766.373 305.991.767.744-2.537 2.593-.768-.744c-19.722-19.149-50.638-19.149-70.381 0-21.15 20.53-54.284 20.53-75.435 0-19.744-19.149-50.66-19.149-70.403 0-10.213 9.925-23.624 15.387-37.717 15.387-14.094 0-27.484-5.462-37.718-15.387-19.743-19.149-50.66-19.149-70.381 0-10.576 10.265-24.158 15.387-37.74 15.387-13.56 0-27.141-5.122-37.717-15.387-19.722-19.149-50.638-19.149-70.381 0-21.151 20.53-54.306 20.53-75.456 0-19.723-19.149-50.639-19.149-70.382 0-21.15 20.53-54.284 20.53-75.435 0-19.743-19.149-50.66-19.149-70.403 0l-.746.744-2.537-2.593.767-.744c21.151-20.53 54.284-20.53 75.435 0 19.744 19.149 50.66 19.149 70.403 0 21.15-20.53 54.284-20.53 75.435 0 19.743 19.149 50.66 19.149 70.382 0 21.15-20.53 54.305-20.53 75.456 0 19.722 19.149 50.66 19.149 70.381 0 21.151-20.53 54.306-20.53 75.456 0 19.723 19.149 50.639 19.149 70.382 0 21.15-20.53 54.284-20.53 75.435 0 19.743 19.149 50.66 19.149 70.403 0 21.13-20.53 54.284-20.53 75.435 0" fill="#FFF6EE" mask="url(#x)"/>
            </g>
            <g transform="rotate(90 532.5 533)">
                <mask id="z" fill="#fff">
                    <use xlink:href="#y"/>
                </mask>
                <path d="m766.373 348.858.767.723-2.537 2.592-.768-.743c-19.722-19.15-50.638-19.15-70.381 0-10.576 10.265-24.136 15.408-37.718 15.408-13.581 0-27.142-5.143-37.717-15.408-19.744-19.15-50.66-19.15-70.403 0-10.213 9.925-23.624 15.408-37.717 15.408-14.094 0-27.484-5.462-37.718-15.408-19.743-19.15-50.66-19.15-70.381 0-21.151 20.53-54.306 20.53-75.457 0-19.722-19.15-50.659-19.15-70.381 0-21.151 20.53-54.284 20.53-75.456 0-19.723-19.15-50.639-19.15-70.382 0-21.15 20.53-54.284 20.53-75.435 0-19.743-19.15-50.66-19.15-70.403 0l-.746.743-2.537-2.592.767-.723c21.151-20.551 54.284-20.551 75.435 0 19.744 19.149 50.66 19.149 70.403 0 21.15-20.53 54.284-20.53 75.435 0 19.743 19.149 50.66 19.149 70.382 0 21.15-20.551 54.305-20.551 75.456 0 19.722 19.149 50.66 19.149 70.381 0 21.151-20.551 54.284-20.53 75.456 0 19.723 19.149 50.639 19.149 70.382 0 21.15-20.551 54.284-20.53 75.435 0 19.743 19.149 50.66 19.149 70.403 0 21.15-20.551 54.284-20.551 75.435 0" fill="#FFF6EE" mask="url(#z)"/>
            </g>
            <g>
                <path d="M175.134 665.14c-5.164 1.408-10.606 1.408-15.77-.065-5.356-1.494-10.222-4.354-14.703-7.556-4.93-3.522-9.603-7.408-14.34-11.186-5.229-4.163-10.457-8.346-15.686-12.509-10.37-8.261-20.763-16.458-31.007-24.848-4.886-3.991-9.773-8.026-14.51-12.21-2.305-2.07-4.567-4.184-6.723-6.404-.043-.064-.128-.085-.192-.128-7.533-5.763-12.74-14.558-14.17-23.93-1.579-10.31 1.26-20.876 6.744-29.629 12.078-19.169 35.21-27.345 57.02-27.451 21.042-.128 42.04 7.044 58.792 19.703 17.093 12.914 29.172 31.422 34.507 52.15 2.667 10.374 3.67 21.218 2.838 31.891-.832 10.844-3.393 21.88-8.557 31.508-5.165 9.627-13.509 17.718-24.243 20.663" fill="#B7DBE5"/>
                <g transform="rotate(90 -224.583 382.065)">
                    <mask id="B" fill="#fff">
                        <use xlink:href="#A"/>
                    </mask>
                    <path d="M390.112 235.354c.608 1.588 2.267 9.872-.94 5.804-28.427 109.515-171.629 104.857-260.426 84.616C-37.423 284.846-45.372 54.337 120.252 5.757c80.963-22.507 166.352 23.785 212.16 90.097 32.9 38.259 63.297 87.087 57.7 139.5" fill="#CACEEB" mask="url(#B)"/>
                </g>
                <g transform="rotate(90 449.891 449.891)">
                    <mask id="D" fill="#fff">
                        <use xlink:href="#C"/>
                    </mask>
                    <path d="M152.97 166.82c1.287 104.246-115.731 183.945-78.103 292.188 37.335 116.07-17.693 227.418-147.578 229.298-171.38-6.607-240.893-203.618-215.954-350.659 15.214-113.256 43.44-243.75 146.603-309.302C-78.582-14.706 5.89-6.45 66.494 37.803c43.746 29.185 84.676 73.832 86.476 129.017" fill="#FADEDA" mask="url(#D)"/>
                </g>
                <g transform="rotate(90 -172.823 686.835)">
                    <mask id="F" fill="#fff">
                        <use xlink:href="#E"/>
                    </mask>
                    <path d="M908.42 390.03c-67.8 220.856-291.436 369.548-519.303 369.262C229.323 763.832-10.088 696.19.33 499.117c5.087-51.032 37.026-99.188 85.519-118.221 108.458-45.049 242.474 31.692 339.582-49.616 79.994-69.647 77.79-188.812 140.694-269.332 68.554-84.846 204.564-78.86 278.725-4.458 89.722 83.86 100.301 220.931 63.57 332.54" fill="#FADEDA" mask="url(#F)"/>
                </g>
                <g transform="rotate(90 -310.234 731.877)">
                    <mask id="H" fill="#fff">
                        <use xlink:href="#G"/>
                    </mask>
                    <path d="M480.67 240.26c0 132.693-107.601 240.261-240.335 240.261C107.602 480.521 0 372.953 0 240.261S107.602 0 240.335 0C373.07 0 480.671 107.569 480.671 240.26" fill="#FFE8D7" mask="url(#H)"/>
                </g>
                <path d="M204.742 732.793c-12.902 0-23.358-10.462-23.358-23.366 0-12.906 10.456-23.368 23.358-23.368 12.903 0 23.36 10.462 23.36 23.368 0 12.904-10.457 23.366-23.36 23.366M765.353 1278.23c-44.558 0-80.68-36.134-80.68-80.705 0-44.572 36.122-80.706 80.68-80.706 44.558 0 80.68 36.134 80.68 80.706 0 44.571-36.122 80.705-80.68 80.705" fill="#B7DBE5"/>
                <path d="M553.825 178.317c0-28.545-23.214-51.768-51.752-51.768-28.533 0-51.751 23.223-51.751 51.768s23.218 51.768 51.751 51.768c28.538 0 51.752-23.223 51.752-51.768m-127.36 0c0-41.705 33.919-75.633 75.608-75.633 41.692 0 75.61 33.928 75.61 75.633s-33.918 75.633-75.61 75.633c-41.69 0-75.607-33.928-75.607-75.633" fill="#F4BDC2"/>
                <g transform="rotate(90 -184.21 1252.21)">
                    <mask id="J" fill="#fff">
                        <use xlink:href="#I"/>
                    </mask>
                    <path d="M75.631-51.751c-28.542 0-51.768 23.216-51.768 51.752 0 28.535 23.226 51.751 51.768 51.751 28.543 0 51.768-23.216 51.768-51.751 0-28.536-23.225-51.752-51.768-51.752m0 127.361C33.926 75.61 0 41.69 0 0 0-41.69 33.926-75.61 75.631-75.61S151.262-41.69 151.262 0c0 41.69-33.926 75.61-75.63 75.61" fill="#F4BDC2" mask="url(#J)"/>
                </g>
                <g transform="rotate(90 -304.1 380.707)">
                    <mask id="L" fill="#fff">
                        <use xlink:href="#K"/>
                    </mask>
                    <path d="M75.633 23.856c-28.544 0-51.767 23.218-51.767 51.752 0 28.533 23.223 51.751 51.767 51.751 28.545 0 51.768-23.218 51.768-51.751 0-28.534-23.223-51.752-51.768-51.752m0 127.36C33.928 151.215 0 117.296 0 75.607 0 33.916 33.928 0 75.633 0s75.631 33.916 75.631 75.608c0 41.69-33.926 75.607-75.63 75.607" fill="#FFF6EE" mask="url(#L)"/>
                </g>
                <g transform="rotate(90 -546.229 996.55)">
                    <mask id="N" fill="#fff">
                        <use xlink:href="#M"/>
                    </mask>
                    <path d="M58.219 18.365c-21.972 0-39.85 17.872-39.85 39.838 0 21.965 17.878 39.837 39.85 39.837s39.85-17.872 39.85-39.837c0-21.966-17.878-39.838-39.85-39.838m0 98.04C26.115 116.405 0 90.295 0 58.203 0 26.109 26.115 0 58.219 0c32.103 0 58.218 26.11 58.218 58.203s-26.115 58.202-58.218 58.202" fill="#B7DBE5" mask="url(#N)"/>
                </g>
            </g>
            <g>
                <g transform="rotate(90 -310.5 730.5)">
                    <mask id="P" fill="#fff">
                        <use xlink:href="#O"/>
                    </mask>
                    <path d="m658.623 332.805.77.744-2.542 2.593-.77-.744c-19.759-19.152-50.733-19.152-70.513 0-10.596 10.267-24.203 15.39-37.789 15.39-13.607 0-27.193-5.123-37.788-15.39-19.78-19.152-50.754-19.152-70.535 0-10.232 9.927-23.668 15.39-37.788 15.39-14.12 0-27.535-5.463-37.788-15.39-19.781-19.174-50.755-19.174-70.514 0-21.19 20.534-54.408 20.534-75.598 0-19.76-19.152-50.755-19.152-70.514 0-21.19 20.534-54.407 20.534-75.598 0-19.759-19.152-50.733-19.152-70.514 0-21.19 20.534-54.386 20.534-75.576 0-19.78-19.152-50.755-19.152-70.535 0l-.748.744-2.542-2.593.77-.744c21.19-20.534 54.385-20.534 75.576 0 19.78 19.152 50.754 19.152 70.535 0 21.19-20.534 54.386-20.534 75.576 0 19.78 19.152 50.755 19.152 70.514 0 21.19-20.534 54.407-20.534 75.598 0 19.76 19.152 50.754 19.152 70.514 0 21.19-20.534 54.407-20.534 75.598 0 19.759 19.152 50.733 19.152 70.513 0 21.19-20.534 54.386-20.534 75.577 0 19.78 19.152 50.754 19.152 70.535 0 21.17-20.534 54.386-20.534 75.576 0" fill="#FFF6EE" mask="url(#P)"/>
                </g>
                <g transform="rotate(90 -310.5 730.5)">
                    <mask id="R" fill="#fff">
                        <use xlink:href="#Q"/>
                    </mask>
                    <path d="m658.623 289.93.77.744-2.542 2.593-.77-.744c-19.759-19.152-50.733-19.152-70.513 0-21.19 20.534-54.386 20.534-75.577 0-19.78-19.152-50.754-19.152-70.535 0-10.232 9.927-23.668 15.411-37.788 15.411-14.12 0-27.535-5.484-37.788-15.41-19.781-19.153-50.755-19.153-70.514 0-10.596 10.266-24.203 15.41-37.81 15.41-13.586 0-27.193-5.144-37.788-15.41-19.76-19.153-50.733-19.153-70.514 0-21.19 20.533-54.407 20.533-75.598 0-19.759-19.153-50.733-19.153-70.514 0-21.19 20.533-54.386 20.533-75.576 0-19.78-19.153-50.755-19.153-70.535 0l-.748.743-2.542-2.593.77-.744c21.19-20.534 54.385-20.534 75.576 0 19.78 19.173 50.754 19.173 70.535 0 21.19-20.513 54.386-20.513 75.576 0 19.78 19.173 50.755 19.152 70.514 0 21.19-20.534 54.407-20.534 75.598 0 19.76 19.173 50.754 19.173 70.514 0 21.19-20.534 54.407-20.534 75.598 0 19.759 19.173 50.733 19.173 70.513 0 21.19-20.534 54.386-20.534 75.577 0 19.78 19.173 50.754 19.173 70.535 0 21.17-20.534 54.386-20.534 75.576 0" fill="#FFF6EE" mask="url(#R)"/>
                </g>
                <g transform="rotate(90 -310.5 730.5)">
                    <mask id="T" fill="#fff">
                        <use xlink:href="#S"/>
                    </mask>
                    <path d="m658.623 247.077.77.744-2.542 2.593-.77-.744c-19.759-19.152-50.733-19.152-70.513 0-10.596 10.267-24.181 15.39-37.789 15.39-13.607 0-27.193-5.123-37.788-15.39-19.78-19.152-50.754-19.152-70.535 0-10.232 9.927-23.668 15.39-37.788 15.39-14.12 0-27.535-5.463-37.788-15.39-19.781-19.152-50.755-19.152-70.514 0-21.212 20.534-54.408 20.534-75.598 0-19.76-19.152-50.733-19.152-70.514 0-21.19 20.534-54.386 20.534-75.598 0-19.759-19.152-50.733-19.152-70.514 0-21.19 20.534-54.386 20.534-75.576 0-19.78-19.152-50.755-19.152-70.535 0l-.748.744-2.542-2.593.77-.744c21.19-20.534 54.385-20.534 75.576 0 19.78 19.152 50.754 19.152 70.535 0 21.19-20.534 54.386-20.534 75.576 0 19.78 19.152 50.755 19.152 70.514 0 21.19-20.534 54.407-20.534 75.598 0 19.76 19.152 50.754 19.152 70.514 0 21.19-20.534 54.407-20.534 75.598 0 19.759 19.152 50.733 19.152 70.513 0 21.19-20.534 54.386-20.534 75.577 0 19.78 19.152 50.754 19.152 70.535 0 21.17-20.534 54.386-20.534 75.576 0" fill="#FFF6EE" mask="url(#T)"/>
                </g>
                <g transform="rotate(90 -310.5 730.5)">
                    <mask id="V" fill="#fff">
                        <use xlink:href="#U"/>
                    </mask>
                    <path d="m-145.717 121.811-2.542-2.593.769-.744c21.19-20.513 54.386-20.534 75.576 0 19.781 19.174 50.755 19.174 70.536 0 21.19-20.513 54.386-20.513 75.576 0 19.78 19.174 50.755 19.174 70.514 0 21.19-20.513 54.407-20.513 75.598 0 19.759 19.174 50.754 19.174 70.514 0 21.19-20.534 54.407-20.534 75.597 0 19.76 19.174 50.734 19.174 70.514 0 21.19-20.534 54.386-20.534 75.577 0 19.78 19.174 50.754 19.174 70.535 0 21.169-20.534 54.386-20.534 75.576 0l.77.744-2.543 2.593-.769-.744c-19.759-19.152-50.733-19.152-70.514 0-21.19 20.534-54.386 20.534-75.576 0-19.78-19.152-50.755-19.152-70.535 0-10.232 9.948-23.669 15.411-37.788 15.411-14.12 0-27.535-5.463-37.789-15.41-19.78-19.153-50.754-19.153-70.513 0-10.596 10.266-24.203 15.41-37.81 15.41-13.586 0-27.193-5.144-37.788-15.41-19.76-19.153-50.734-19.153-70.514 0-21.19 20.533-54.386 20.533-75.598 0-19.76-19.153-50.733-19.153-70.514 0-21.19 20.533-54.386 20.533-75.576 0-19.78-19.153-50.755-19.153-70.535 0l-.748.743z" fill="#FFF6EE" mask="url(#V)"/>
                </g>
                <g transform="rotate(90 -310.5 730.5)">
                    <mask id="X" fill="#fff">
                        <use xlink:href="#W"/>
                    </mask>
                    <path d="m658.623 161.348.77.744-2.542 2.594-.77-.744c-19.759-19.152-50.733-19.152-70.513 0-21.19 20.534-54.386 20.534-75.577 0-19.78-19.152-50.754-19.152-70.535 0-10.232 9.927-23.668 15.39-37.788 15.39-14.12 0-27.535-5.463-37.788-15.39-19.781-19.152-50.755-19.152-70.514 0-10.596 10.267-24.203 15.39-37.81 15.39-13.586 0-27.193-5.123-37.788-15.39-19.76-19.152-50.733-19.152-70.514 0-21.19 20.534-54.407 20.534-75.598 0-19.759-19.152-50.733-19.152-70.514 0-21.19 20.534-54.386 20.534-75.576 0-19.78-19.152-50.755-19.152-70.535 0l-.748.744-2.542-2.594.77-.744c21.19-20.533 54.385-20.533 75.576 0 19.78 19.153 50.754 19.153 70.535 0 21.19-20.533 54.386-20.533 75.576 0 19.78 19.153 50.755 19.153 70.514 0 21.19-20.533 54.407-20.533 75.598 0 19.76 19.153 50.754 19.153 70.514 0 21.19-20.533 54.407-20.533 75.598 0 19.759 19.153 50.733 19.153 70.513 0 21.19-20.533 54.386-20.533 75.577 0 19.78 19.153 50.754 19.153 70.535 0 21.17-20.533 54.386-20.533 75.576 0" fill="#FFF6EE" mask="url(#X)"/>
                </g>
                <g transform="rotate(90 -310.5 730.5)">
                    <mask id="Z" fill="#fff">
                        <use xlink:href="#Y"/>
                    </mask>
                    <path d="m658.623 204.223.77.723-2.542 2.593-.77-.744c-19.759-19.152-50.733-19.152-70.513 0-10.596 10.267-24.181 15.411-37.789 15.411-13.607 0-27.193-5.144-37.788-15.41-19.78-19.153-50.754-19.153-70.535 0-10.232 9.926-23.668 15.41-37.788 15.41-14.12 0-27.535-5.463-37.788-15.41-19.781-19.153-50.755-19.153-70.514 0-21.19 20.533-54.408 20.533-75.598 0-19.76-19.153-50.755-19.153-70.514 0-21.19 20.533-54.386 20.533-75.598 0-19.759-19.153-50.733-19.153-70.514 0-21.19 20.533-54.386 20.533-75.576 0-19.78-19.153-50.755-19.153-70.535 0l-.748.743-2.542-2.593.77-.723c21.19-20.555 54.385-20.555 75.576 0 19.78 19.152 50.754 19.152 70.535 0 21.19-20.534 54.386-20.534 75.576 0 19.78 19.152 50.755 19.152 70.514 0 21.19-20.555 54.407-20.555 75.598 0 19.76 19.152 50.754 19.152 70.514 0 21.19-20.555 54.386-20.534 75.598 0 19.759 19.152 50.733 19.152 70.513 0 21.19-20.555 54.386-20.534 75.577 0 19.78 19.152 50.754 19.152 70.535 0 21.19-20.555 54.386-20.555 75.576 0" fill="#FFF6EE" mask="url(#Z)"/>
                </g>
            </g>
            <g>
                <g transform="rotate(90 235 832.5)">
                    <mask id="ac" fill="#fff">
                        <use xlink:href="#ab"/>
                    </mask>
                    <path d="M178.873-.324c0 49.448-40.04 89.533-89.435 89.533S0 49.124 0-.324c0-49.449 40.043-89.534 89.438-89.534 49.394 0 89.435 40.085 89.435 89.534" fill="#FADEDA" mask="url(#ac)"/>
                </g>
            </g>
            <g>
                <path d="M43.464 54.75c-2.255 0-4.084-1.887-4.084-4.213s1.829-4.213 4.084-4.213c2.256 0 4.085 1.887 4.085 4.213s-1.829 4.213-4.085 4.213M43.464 88.454c-2.255 0-4.084-1.887-4.084-4.213 0-2.327 1.829-4.214 4.084-4.214 2.256 0 4.085 1.887 4.085 4.214 0 2.326-1.829 4.213-4.085 4.213M43.464 122.158c-2.255 0-4.084-1.887-4.084-4.214 0-2.326 1.829-4.213 4.084-4.213 2.256 0 4.085 1.887 4.085 4.213 0 2.327-1.829 4.214-4.085 4.214M43.464 155.861c-2.255 0-4.084-1.887-4.084-4.213 0-2.327 1.829-4.213 4.084-4.213 2.256 0 4.085 1.886 4.085 4.213 0 2.326-1.829 4.213-4.085 4.213M43.464 189.565c-2.255 0-4.084-1.887-4.084-4.214 0-2.326 1.829-4.213 4.084-4.213 2.256 0 4.085 1.887 4.085 4.213 0 2.327-1.829 4.214-4.085 4.214M43.464 223.268c-2.255 0-4.084-1.887-4.084-4.213 0-2.327 1.829-4.213 4.084-4.213 2.256 0 4.085 1.886 4.085 4.213 0 2.326-1.829 4.213-4.085 4.213M71.724 54.75c-2.256 0-4.085-1.887-4.085-4.213s1.83-4.213 4.085-4.213 4.085 1.887 4.085 4.213-1.83 4.213-4.085 4.213M71.724 88.454c-2.256 0-4.085-1.887-4.085-4.213 0-2.327 1.83-4.214 4.085-4.214s4.085 1.887 4.085 4.214c0 2.326-1.83 4.213-4.085 4.213M71.724 122.158c-2.256 0-4.085-1.887-4.085-4.214 0-2.326 1.83-4.213 4.085-4.213s4.085 1.887 4.085 4.213c0 2.327-1.83 4.214-4.085 4.214M71.724 155.861c-2.256 0-4.085-1.887-4.085-4.213 0-2.327 1.83-4.213 4.085-4.213s4.085 1.886 4.085 4.213c0 2.326-1.83 4.213-4.085 4.213M71.724 189.565c-2.256 0-4.085-1.887-4.085-4.214 0-2.326 1.83-4.213 4.085-4.213s4.085 1.887 4.085 4.213c0 2.327-1.83 4.214-4.085 4.214M71.724 223.268c-2.256 0-4.085-1.887-4.085-4.213 0-2.327 1.83-4.213 4.085-4.213s4.085 1.886 4.085 4.213c0 2.326-1.83 4.213-4.085 4.213M99.95 54.75c-2.255 0-4.085-1.887-4.085-4.213s1.83-4.213 4.085-4.213c2.256 0 4.085 1.887 4.085 4.213s-1.83 4.213-4.085 4.213M99.95 88.454c-2.255 0-4.085-1.887-4.085-4.213 0-2.327 1.83-4.214 4.085-4.214 2.256 0 4.085 1.887 4.085 4.214 0 2.326-1.83 4.213-4.085 4.213M99.95 122.158c-2.255 0-4.085-1.887-4.085-4.214 0-2.326 1.83-4.213 4.085-4.213 2.256 0 4.085 1.887 4.085 4.213 0 2.327-1.83 4.214-4.085 4.214M99.95 155.861c-2.255 0-4.085-1.887-4.085-4.213 0-2.327 1.83-4.213 4.085-4.213 2.256 0 4.085 1.886 4.085 4.213 0 2.326-1.83 4.213-4.085 4.213M99.95 189.565c-2.255 0-4.085-1.887-4.085-4.214 0-2.326 1.83-4.213 4.085-4.213 2.256 0 4.085 1.887 4.085 4.213 0 2.327-1.83 4.214-4.085 4.214M99.95 223.268c-2.255 0-4.085-1.887-4.085-4.213 0-2.327 1.83-4.213 4.085-4.213 2.256 0 4.085 1.886 4.085 4.213 0 2.326-1.83 4.213-4.085 4.213M128.21 54.75c-2.256 0-4.085-1.887-4.085-4.213s1.829-4.213 4.084-4.213c2.256 0 4.085 1.887 4.085 4.213s-1.829 4.213-4.085 4.213M128.21 88.454c-2.256 0-4.085-1.887-4.085-4.213 0-2.327 1.829-4.214 4.084-4.214 2.256 0 4.085 1.887 4.085 4.214 0 2.326-1.829 4.213-4.085 4.213M128.21 122.158c-2.256 0-4.085-1.887-4.085-4.214 0-2.326 1.829-4.213 4.084-4.213 2.256 0 4.085 1.887 4.085 4.213 0 2.327-1.829 4.214-4.085 4.214M128.21 155.861c-2.256 0-4.085-1.887-4.085-4.213 0-2.327 1.829-4.213 4.084-4.213 2.256 0 4.085 1.886 4.085 4.213 0 2.326-1.829 4.213-4.085 4.213M128.21 189.565c-2.256 0-4.085-1.887-4.085-4.214 0-2.326 1.829-4.213 4.084-4.213 2.256 0 4.085 1.887 4.085 4.213 0 2.327-1.829 4.214-4.085 4.214M128.21 223.268c-2.256 0-4.085-1.887-4.085-4.213 0-2.327 1.829-4.213 4.084-4.213 2.256 0 4.085 1.886 4.085 4.213 0 2.326-1.829 4.213-4.085 4.213M42.085 257.38c-2.256 0-4.085-1.887-4.085-4.214 0-2.326 1.83-4.213 4.085-4.213s4.085 1.887 4.085 4.213c0 2.327-1.83 4.214-4.085 4.214M42.085 291.083c-2.256 0-4.085-1.887-4.085-4.213 0-2.327 1.83-4.213 4.085-4.213s4.085 1.886 4.085 4.213c0 2.326-1.83 4.213-4.085 4.213M42.085 324.787c-2.256 0-4.085-1.887-4.085-4.214 0-2.326 1.83-4.213 4.085-4.213s4.085 1.887 4.085 4.213c0 2.327-1.83 4.214-4.085 4.214M42.085 358.49c-2.256 0-4.085-1.887-4.085-4.213s1.83-4.213 4.085-4.213 4.085 1.887 4.085 4.213-1.83 4.213-4.085 4.213M42.085 392.194c-2.256 0-4.085-1.887-4.085-4.213 0-2.327 1.83-4.214 4.085-4.214s4.085 1.887 4.085 4.214c0 2.326-1.83 4.213-4.085 4.213M42.085 425.898c-2.256 0-4.085-1.887-4.085-4.214 0-2.326 1.83-4.213 4.085-4.213s4.085 1.887 4.085 4.213c0 2.327-1.83 4.214-4.085 4.214M70.344 257.38c-2.255 0-4.085-1.887-4.085-4.214 0-2.326 1.83-4.213 4.085-4.213 2.256 0 4.085 1.887 4.085 4.213 0 2.327-1.83 4.214-4.085 4.214M70.344 291.083c-2.255 0-4.085-1.887-4.085-4.213 0-2.327 1.83-4.213 4.085-4.213 2.256 0 4.085 1.886 4.085 4.213 0 2.326-1.83 4.213-4.085 4.213M70.344 324.787c-2.255 0-4.085-1.887-4.085-4.214 0-2.326 1.83-4.213 4.085-4.213 2.256 0 4.085 1.887 4.085 4.213 0 2.327-1.83 4.214-4.085 4.214M70.344 358.49c-2.255 0-4.085-1.887-4.085-4.213s1.83-4.213 4.085-4.213c2.256 0 4.085 1.887 4.085 4.213s-1.83 4.213-4.085 4.213M70.344 392.194c-2.255 0-4.085-1.887-4.085-4.213 0-2.327 1.83-4.214 4.085-4.214 2.256 0 4.085 1.887 4.085 4.214 0 2.326-1.83 4.213-4.085 4.213M70.344 425.898c-2.255 0-4.085-1.887-4.085-4.214 0-2.326 1.83-4.213 4.085-4.213 2.256 0 4.085 1.887 4.085 4.213 0 2.327-1.83 4.214-4.085 4.214M98.57 257.38c-2.255 0-4.084-1.887-4.084-4.214 0-2.326 1.829-4.213 4.084-4.213 2.256 0 4.085 1.887 4.085 4.213 0 2.327-1.829 4.214-4.085 4.214M98.57 291.083c-2.255 0-4.084-1.887-4.084-4.213 0-2.327 1.829-4.213 4.084-4.213 2.256 0 4.085 1.886 4.085 4.213 0 2.326-1.829 4.213-4.085 4.213M98.57 324.787c-2.255 0-4.084-1.887-4.084-4.214 0-2.326 1.829-4.213 4.084-4.213 2.256 0 4.085 1.887 4.085 4.213 0 2.327-1.829 4.214-4.085 4.214M98.57 358.49c-2.255 0-4.084-1.887-4.084-4.213s1.829-4.213 4.084-4.213c2.256 0 4.085 1.887 4.085 4.213s-1.829 4.213-4.085 4.213M98.57 392.194c-2.255 0-4.084-1.887-4.084-4.213 0-2.327 1.829-4.214 4.084-4.214 2.256 0 4.085 1.887 4.085 4.214 0 2.326-1.829 4.213-4.085 4.213M98.57 425.898c-2.255 0-4.084-1.887-4.084-4.214 0-2.326 1.829-4.213 4.084-4.213 2.256 0 4.085 1.887 4.085 4.213 0 2.327-1.829 4.214-4.085 4.214M126.83 257.38c-2.256 0-4.085-1.887-4.085-4.214 0-2.326 1.83-4.213 4.085-4.213s4.085 1.887 4.085 4.213c0 2.327-1.83 4.214-4.085 4.214M126.83 291.083c-2.256 0-4.085-1.887-4.085-4.213 0-2.327 1.83-4.213 4.085-4.213s4.085 1.886 4.085 4.213c0 2.326-1.83 4.213-4.085 4.213M126.83 324.787c-2.256 0-4.085-1.887-4.085-4.214 0-2.326 1.83-4.213 4.085-4.213s4.085 1.887 4.085 4.213c0 2.327-1.83 4.214-4.085 4.214M126.83 358.49c-2.256 0-4.085-1.887-4.085-4.213s1.83-4.213 4.085-4.213 4.085 1.887 4.085 4.213-1.83 4.213-4.085 4.213M126.83 392.194c-2.256 0-4.085-1.887-4.085-4.213 0-2.327 1.83-4.214 4.085-4.214s4.085 1.887 4.085 4.214c0 2.326-1.83 4.213-4.085 4.213M126.83 425.898c-2.256 0-4.085-1.887-4.085-4.214 0-2.326 1.83-4.213 4.085-4.213s4.085 1.887 4.085 4.213c0 2.327-1.83 4.214-4.085 4.214" fill="#B7DBE5"/>
                <path d="M924.396 1481.069c0-2.258 1.885-4.09 4.208-4.09 2.324 0 4.209 1.832 4.209 4.09s-1.885 4.09-4.209 4.09c-2.323 0-4.208-1.832-4.208-4.09M890.73 1481.069c0-2.258 1.885-4.09 4.21-4.09 2.323 0 4.208 1.832 4.208 4.09s-1.885 4.09-4.209 4.09-4.208-1.832-4.208-4.09M857.066 1481.069c0-2.258 1.884-4.09 4.208-4.09 2.324 0 4.209 1.832 4.209 4.09s-1.885 4.09-4.209 4.09-4.208-1.832-4.208-4.09M823.4 1481.069c0-2.258 1.885-4.09 4.209-4.09s4.208 1.832 4.208 4.09-1.884 4.09-4.208 4.09c-2.324 0-4.209-1.832-4.209-4.09M789.735 1481.069c0-2.258 1.885-4.09 4.209-4.09s4.208 1.832 4.208 4.09-1.884 4.09-4.208 4.09c-2.324 0-4.209-1.832-4.209-4.09M756.07 1481.069c0-2.258 1.885-4.09 4.208-4.09 2.324 0 4.209 1.832 4.209 4.09s-1.885 4.09-4.209 4.09c-2.323 0-4.208-1.832-4.208-4.09M924.396 1509.36c0-2.258 1.885-4.09 4.208-4.09 2.324 0 4.209 1.832 4.209 4.09 0 2.259-1.885 4.09-4.209 4.09-2.323 0-4.208-1.831-4.208-4.09M890.73 1509.36c0-2.258 1.885-4.09 4.21-4.09 2.323 0 4.208 1.832 4.208 4.09 0 2.259-1.885 4.09-4.209 4.09s-4.208-1.831-4.208-4.09M857.066 1509.36c0-2.258 1.884-4.09 4.208-4.09 2.324 0 4.209 1.832 4.209 4.09 0 2.259-1.885 4.09-4.209 4.09s-4.208-1.831-4.208-4.09M823.4 1509.36c0-2.258 1.885-4.09 4.209-4.09s4.208 1.832 4.208 4.09c0 2.259-1.884 4.09-4.208 4.09-2.324 0-4.209-1.831-4.209-4.09M789.735 1509.36c0-2.258 1.885-4.09 4.209-4.09s4.208 1.832 4.208 4.09c0 2.259-1.884 4.09-4.208 4.09-2.324 0-4.209-1.831-4.209-4.09M756.07 1509.36c0-2.258 1.885-4.09 4.208-4.09 2.324 0 4.209 1.832 4.209 4.09 0 2.259-1.885 4.09-4.209 4.09-2.323 0-4.208-1.831-4.208-4.09M924.396 1537.619c0-2.258 1.885-4.09 4.208-4.09 2.324 0 4.209 1.832 4.209 4.09s-1.885 4.09-4.209 4.09c-2.323 0-4.208-1.832-4.208-4.09M890.73 1537.619c0-2.258 1.885-4.09 4.21-4.09 2.323 0 4.208 1.832 4.208 4.09s-1.885 4.09-4.209 4.09-4.208-1.832-4.208-4.09M857.066 1537.619c0-2.258 1.884-4.09 4.208-4.09 2.324 0 4.209 1.832 4.209 4.09s-1.885 4.09-4.209 4.09-4.208-1.832-4.208-4.09M823.4 1537.619c0-2.258 1.885-4.09 4.209-4.09s4.208 1.832 4.208 4.09-1.884 4.09-4.208 4.09c-2.324 0-4.209-1.832-4.209-4.09M789.735 1537.619c0-2.258 1.885-4.09 4.209-4.09s4.208 1.832 4.208 4.09-1.884 4.09-4.208 4.09c-2.324 0-4.209-1.832-4.209-4.09M756.07 1537.619c0-2.258 1.885-4.09 4.208-4.09 2.324 0 4.209 1.832 4.209 4.09s-1.885 4.09-4.209 4.09c-2.323 0-4.208-1.832-4.208-4.09M924.396 1565.91c0-2.258 1.885-4.089 4.208-4.089 2.324 0 4.209 1.831 4.209 4.09 0 2.258-1.885 4.089-4.209 4.089-2.323 0-4.208-1.831-4.208-4.09M890.73 1565.91c0-2.258 1.885-4.089 4.21-4.089 2.323 0 4.208 1.831 4.208 4.09 0 2.258-1.885 4.089-4.209 4.089s-4.208-1.831-4.208-4.09M857.066 1565.91c0-2.258 1.884-4.089 4.208-4.089 2.324 0 4.209 1.831 4.209 4.09 0 2.258-1.885 4.089-4.209 4.089s-4.208-1.831-4.208-4.09M823.4 1565.91c0-2.258 1.885-4.089 4.209-4.089s4.208 1.831 4.208 4.09c0 2.258-1.884 4.089-4.208 4.089-2.324 0-4.209-1.831-4.209-4.09M789.735 1565.91c0-2.258 1.885-4.089 4.209-4.089s4.208 1.831 4.208 4.09c0 2.258-1.884 4.089-4.208 4.089-2.324 0-4.209-1.831-4.209-4.09M756.07 1565.91c0-2.258 1.885-4.089 4.208-4.089 2.324 0 4.209 1.831 4.209 4.09 0 2.258-1.885 4.089-4.209 4.089-2.323 0-4.208-1.831-4.208-4.09M721.997 1479.688c0-2.259 1.885-4.09 4.209-4.09s4.208 1.831 4.208 4.09c0 2.258-1.884 4.09-4.208 4.09-2.324 0-4.209-1.832-4.209-4.09M688.332 1479.688c0-2.259 1.885-4.09 4.209-4.09 2.323 0 4.208 1.831 4.208 4.09 0 2.258-1.885 4.09-4.208 4.09-2.324 0-4.209-1.832-4.209-4.09M654.667 1479.688c0-2.259 1.885-4.09 4.208-4.09 2.324 0 4.209 1.831 4.209 4.09 0 2.258-1.885 4.09-4.209 4.09-2.323 0-4.208-1.832-4.208-4.09M621.002 1479.688c0-2.259 1.884-4.09 4.208-4.09 2.324 0 4.209 1.831 4.209 4.09 0 2.258-1.885 4.09-4.209 4.09s-4.208-1.832-4.208-4.09M587.337 1479.688c0-2.259 1.884-4.09 4.208-4.09 2.324 0 4.208 1.831 4.208 4.09 0 2.258-1.884 4.09-4.208 4.09-2.324 0-4.208-1.832-4.208-4.09M553.671 1479.688c0-2.259 1.885-4.09 4.209-4.09s4.208 1.831 4.208 4.09c0 2.258-1.884 4.09-4.208 4.09-2.324 0-4.209-1.832-4.209-4.09M721.997 1507.98c0-2.259 1.885-4.09 4.209-4.09s4.208 1.831 4.208 4.09c0 2.257-1.884 4.089-4.208 4.089-2.324 0-4.209-1.832-4.209-4.09M688.332 1507.98c0-2.259 1.885-4.09 4.209-4.09 2.323 0 4.208 1.831 4.208 4.09 0 2.257-1.885 4.089-4.208 4.089-2.324 0-4.209-1.832-4.209-4.09M654.667 1507.98c0-2.259 1.885-4.09 4.208-4.09 2.324 0 4.209 1.831 4.209 4.09 0 2.257-1.885 4.089-4.209 4.089-2.323 0-4.208-1.832-4.208-4.09M621.002 1507.98c0-2.259 1.884-4.09 4.208-4.09 2.324 0 4.209 1.831 4.209 4.09 0 2.257-1.885 4.089-4.209 4.089s-4.208-1.832-4.208-4.09M587.337 1507.98c0-2.259 1.884-4.09 4.208-4.09 2.324 0 4.208 1.831 4.208 4.09 0 2.257-1.884 4.089-4.208 4.089-2.324 0-4.208-1.832-4.208-4.09M553.671 1507.98c0-2.259 1.885-4.09 4.209-4.09s4.208 1.831 4.208 4.09c0 2.257-1.884 4.089-4.208 4.089-2.324 0-4.209-1.832-4.209-4.09M721.997 1536.238c0-2.258 1.885-4.09 4.209-4.09s4.208 1.832 4.208 4.09-1.884 4.09-4.208 4.09c-2.324 0-4.209-1.832-4.209-4.09M688.332 1536.238c0-2.258 1.885-4.09 4.209-4.09 2.323 0 4.208 1.832 4.208 4.09s-1.885 4.09-4.208 4.09c-2.324 0-4.209-1.832-4.209-4.09M654.667 1536.238c0-2.258 1.885-4.09 4.208-4.09 2.324 0 4.209 1.832 4.209 4.09s-1.885 4.09-4.209 4.09c-2.323 0-4.208-1.832-4.208-4.09M621.002 1536.238c0-2.258 1.884-4.09 4.208-4.09 2.324 0 4.209 1.832 4.209 4.09s-1.885 4.09-4.209 4.09-4.208-1.832-4.208-4.09M587.337 1536.238c0-2.258 1.884-4.09 4.208-4.09 2.324 0 4.208 1.832 4.208 4.09s-1.884 4.09-4.208 4.09c-2.324 0-4.208-1.832-4.208-4.09M553.671 1536.238c0-2.258 1.885-4.09 4.209-4.09s4.208 1.832 4.208 4.09-1.884 4.09-4.208 4.09c-2.324 0-4.209-1.832-4.209-4.09M721.997 1564.53c0-2.259 1.885-4.09 4.209-4.09s4.208 1.831 4.208 4.09c0 2.258-1.884 4.089-4.208 4.089-2.324 0-4.209-1.831-4.209-4.09M688.332 1564.53c0-2.259 1.885-4.09 4.209-4.09 2.323 0 4.208 1.831 4.208 4.09 0 2.258-1.885 4.089-4.208 4.089-2.324 0-4.209-1.831-4.209-4.09M654.667 1564.53c0-2.259 1.885-4.09 4.208-4.09 2.324 0 4.209 1.831 4.209 4.09 0 2.258-1.885 4.089-4.209 4.089-2.323 0-4.208-1.831-4.208-4.09M621.002 1564.53c0-2.259 1.884-4.09 4.208-4.09 2.324 0 4.209 1.831 4.209 4.09 0 2.258-1.885 4.089-4.209 4.089s-4.208-1.831-4.208-4.09M587.337 1564.53c0-2.259 1.884-4.09 4.208-4.09 2.324 0 4.208 1.831 4.208 4.09 0 2.258-1.884 4.089-4.208 4.089-2.324 0-4.208-1.831-4.208-4.09M553.671 1564.53c0-2.259 1.885-4.09 4.209-4.09s4.208 1.831 4.208 4.09c0 2.258-1.884 4.089-4.208 4.089-2.324 0-4.209-1.831-4.209-4.09" fill="#F4BDC2"/>
                <path fill="#FFF6EE" d="M984.123 1194.811v15.56h-12.579v-15.56h-15.563v-12.593h15.563v-15.56h12.579v15.56h15.541v12.593zM971.544 1148.516v-15.58h-15.563v-12.593h15.563v-15.56h12.579v15.56h15.541v12.592h-15.541v15.581zM938.18 1163.884v15.56H925.6v-15.56h-15.562v-12.593H925.6v-15.58h12.578v15.58h15.542v12.593z"/>
                <path fill="#F4BDC2" d="M192.324 153.751v15.56h15.564v12.593h-15.564v15.56h-12.557v-15.56h-15.542V169.31h15.542v-15.56zM192.324 120.028v15.581h-12.557v-15.58h-15.542v-12.594h15.542v-15.56h12.557v15.56h15.564v12.593zM230.103 76.508v-15.56h12.578v15.56h15.563v12.593h-15.563v15.56h-12.578V89.1H214.56V76.508zM179.767 30h12.558v15.581h15.563v12.593h-15.563v15.56h-12.558v-15.56h-15.542V45.58h15.542zM242.681 122.803v15.58h15.563v12.594h-15.563v15.56h-12.578v-15.56H214.56v-12.593h15.542v-15.581zM276.046 107.435v-15.56h12.579v15.56h15.563v12.593h-15.563v15.581h-12.579v-15.58h-15.542v-12.594z"/>
            </g>
        </g>
    </g>
</svg>
